<svg xmlns="http://www.w3.org/2000/svg" width="50" height="50" viewBox="0 0 50 50">
    <g fill="none" fill-rule="nonzero">
        <path fill="#E7ECED" d="M17.232 39.069l-7.444 4.118a6.69 6.69 0 0 0-1.194.862C12.934 47.761 18.535 50 24.656 50c6.075 0 11.642-2.206 15.969-5.867-.4-.342-.832-.65-1.312-.892l-7.97-4.042a3.088 3.088 0 0 1-1.68-2.757V33.27c.223-.26.48-.592.753-.984a18.712 18.712 0 0 0 2.478-5.065 2.535 2.535 0 0 0 1.775-2.416V21.42c0-.744-.327-1.41-.834-1.876v-4.895s.991-7.617-9.178-7.617c-10.17 0-9.178 7.617-9.178 7.617v4.895a2.54 2.54 0 0 0-.834 1.876v3.386c0 .892.462 1.677 1.154 2.13.834 3.684 3.018 6.335 3.018 6.335v3.093c-.001 1.127-.61 2.165-1.585 2.706z"/>
        <path fill="#00AEEF" d="M25.428.004C11.623-.234.24 10.848.004 24.756c-.134 7.886 3.355 14.974 8.91 19.687.363-.32.752-.612 1.185-.85l7.46-4.1a3.074 3.074 0 0 0 1.588-2.694v-3.08s-2.19-2.638-3.025-6.303a2.532 2.532 0 0 1-1.156-2.12v-3.371c0-.741.327-1.404.836-1.868v-4.872S14.808 7.604 25 7.604s9.198 7.581 9.198 7.581v4.872a2.52 2.52 0 0 1 .836 1.868v3.37a2.525 2.525 0 0 1-1.779 2.405 18.573 18.573 0 0 1-2.483 5.041c-.275.39-.531.721-.756.979v3.157a3.07 3.07 0 0 0 1.684 2.745l7.988 4.023c.48.242.913.547 1.312.886a25.192 25.192 0 0 0 8.996-18.914C50.234 11.71 39.234.241 25.428.004z"/>
    </g>
</svg>
