<?xml version="1.0" encoding="utf-8"?>
<!-- Generator: Adobe Illustrator 23.0.2, SVG Export Plug-In . SVG Version: 6.00 Build 0)  -->
<svg version="1.1" id="Layer_1" xmlns="http://www.w3.org/2000/svg" xmlns:xlink="http://www.w3.org/1999/xlink" x="0px" y="0px"
	 viewBox="0 0 706.7 2391.7" style="enable-background:new 0 0 706.7 2391.7;" xml:space="preserve">
<style type="text/css">
	.st0{clip-path:url(#SVGID_3_);}
	.st1{fill:#00ADEE;}
	.st2{clip-path:url(#SVGID_5_);}
	.st3{fill:#FFFFFF;}
	.st4{fill:none;stroke:#444440;stroke-width:0.25;stroke-miterlimit:10;}
	.st5{fill:#3093CD;}
	.st6{fill:#D0D2D3;}
	.st7{fill-rule:evenodd;clip-rule:evenodd;fill:#231F20;}
	.st8{opacity:0.2;fill:#FFFFFF;enable-background:new    ;}
	.st9{opacity:0.1;enable-background:new    ;}
	.st10{clip-path:url(#SVGID_7_);}
	.st11{fill:none;stroke:#00AEEF;stroke-width:7;}
	.st12{fill:#FFFFFF;stroke:#00AEEF;stroke-width:2.76;stroke-miterlimit:10;}
	.st13{fill:#D2F1FC;stroke:#00AEEF;stroke-width:1.39;stroke-miterlimit:10;}
	.st14{fill:#D2F1FC;}
	.st15{fill:#00AEEF;}
	.st16{fill:#FFFFFF;stroke:#00AEEF;stroke-width:1.39;stroke-miterlimit:10;}
	.st17{fill:none;stroke:#00AEEF;stroke-width:10;}
	.st18{enable-background:new    ;}
	.st19{fill:#231F20;}
</style>
<title>Asset 6</title>
<g>
	<g>
		<g>
			<g>
				<g>
					<g>
						<defs>
							<path id="SVGID_2_" d="M22.7,0h444c12.6,0,22.7,10.2,22.7,22.7v142.8c0,12.6-10.2,22.7-22.7,22.7h-444
								C10.2,188.3,0,178.1,0,165.5V22.8C0,10.2,10.2,0,22.7,0z"/>
						</defs>
						<clipPath id="SVGID_3_">
							<use xlink:href="#SVGID_2_"  style="overflow:visible;"/>
						</clipPath>
						<g class="st0">
							<rect class="st1" width="380" height="187.9"/>
						</g>
					</g>
					<g>
						<defs>
							<path id="SVGID_4_" d="M22.7,0h444c12.6,0,22.7,10.2,22.7,22.7v142.8c0,12.6-10.2,22.7-22.7,22.7h-444
								C10.2,188.3,0,178.1,0,165.5V22.8C0,10.2,10.2,0,22.7,0z"/>
						</defs>
						<clipPath id="SVGID_5_">
							<use xlink:href="#SVGID_4_"  style="overflow:visible;"/>
						</clipPath>
						<g class="st2">
							<rect x="380" class="st3" width="110.1" height="187.9"/>
						</g>
					</g>
					<g>
						<path id="SVGID_1_" class="st4" d="M22.7,0h444c12.6,0,22.7,10.2,22.7,22.7v142.8c0,12.6-10.2,22.7-22.7,22.7h-444
							C10.2,188.3,0,178.1,0,165.5V22.8C0,10.2,10.2,0,22.7,0z"/>
					</g>
				</g>
			</g>
			<g>
				<g>
					<g>
						<path class="st3" d="M148.3,114.5H116V108l18.9-25.8h-17.8v-8.5h30.4V81l-18.4,25.1h19.1v8.4H148.3z"/>
						<path class="st3" d="M181,114.5l-2.2-5.5h-0.3c-1.9,2.4-3.8,4-5.7,4.9c-2,0.9-4.6,1.4-7.8,1.4c-3.9,0-7-1.1-9.3-3.4
							c-2.2-2.2-3.4-5.4-3.4-9.5c0-4.3,1.5-7.5,4.5-9.6c3-2,7.6-3.2,13.7-3.4l7.1-0.2v-1.8c0-4.1-2.1-6.2-6.4-6.2
							c-3.2,0-7.1,1-11.5,3l-3.7-7.5c4.7-2.4,9.9-3.7,15.6-3.7c5.5,0,9.7,1.2,12.6,3.6c2.9,2.4,4.4,6,4.4,10.9v27.1H181V114.5z
							 M177.7,95.6l-4.3,0.1c-3.2,0.1-5.6,0.7-7.2,1.8c-1.6,1.1-2.4,2.7-2.4,4.9c0,3.1,1.8,4.7,5.4,4.7c2.6,0,4.7-0.7,6.2-2.2
							c1.6-1.5,2.3-3.4,2.3-5.9V95.6z"/>
						<path class="st3" d="M234.4,114.5h-11.2V90.7c0-3-0.5-5.1-1.5-6.6s-2.6-2.2-4.7-2.2c-2.8,0-4.9,1-6.2,3.1s-2,5.5-2,10.3v19.3
							h-11.2V73.7h8.5l1.5,5.2h0.6c1.1-1.9,2.7-3.3,4.7-4.4s4.5-1.6,7.1-1.6c6.1,0,10.3,2,12.4,6h1c1.1-1.9,2.7-3.4,4.9-4.4
							c2.1-1,4.5-1.6,7.2-1.6c4.6,0,8.1,1.2,10.5,3.6s3.6,6.2,3.6,11.4v26.4h-11.2V90.7c0-3-0.5-5.1-1.5-6.6s-2.6-2.2-4.7-2.2
							c-2.7,0-4.7,0.9-6.1,2.9c-1.4,2-2,5-2,9.3v20.4H234.4z"/>
						<path class="st3" d="M268.4,63.2c0-3.7,2-5.4,6.1-5.4s6.1,1.8,6.1,5.4c0,1.8-0.5,3-1.5,4.1c-1,0.9-2.5,1.4-4.5,1.4
							C270.5,68.7,268.4,66.8,268.4,63.2z M280.1,114.5h-11.2V73.7h11.2V114.5z"/>
						<path class="st3" d="M306.2,115.3c-12.7,0-19.1-7-19.1-20.9c0-7,1.8-12.2,5.2-15.9c3.4-3.7,8.4-5.5,14.9-5.5
							c4.7,0,8.9,0.9,12.7,2.8l-3.3,8.6c-1.8-0.7-3.4-1.3-4.9-1.8s-3-0.7-4.5-0.7c-5.8,0-8.7,4.1-8.7,12.3c0,8,2.9,12,8.7,12
							c2.2,0,4.1-0.3,6-0.9c1.8-0.5,3.7-1.5,5.5-2.7v9.5c-1.8,1.1-3.7,2-5.5,2.4C311.3,115.1,309,115.3,306.2,115.3z"/>
						<path class="st3" d="M355,102.4c0,4.2-1.5,7.4-4.4,9.5s-7.2,3.3-13.1,3.3c-3,0-5.5-0.2-7.6-0.6s-4.1-1-5.9-1.8v-9.2
							c2.1,0.9,4.4,1.8,7,2.4c2.6,0.7,4.9,1,6.8,1c4.1,0,6.1-1.1,6.1-3.5c0-0.9-0.3-1.6-0.8-2.2c-0.5-0.5-1.5-1.1-2.8-1.9
							c-1.3-0.7-3-1.5-5.3-2.4c-3.1-1.3-5.5-2.5-6.9-3.7c-1.4-1.1-2.6-2.4-3.2-3.9c-0.7-1.4-1-3.2-1-5.3c0-3.7,1.4-6.4,4.2-8.4
							s6.8-3,12-3c4.9,0,9.7,1.1,14.3,3.2l-3.4,8c-2-0.9-3.9-1.6-5.7-2.2c-1.8-0.5-3.6-0.8-5.4-0.8c-3.3,0-4.9,0.9-4.9,2.6
							c0,1,0.5,1.9,1.6,2.6s3.4,1.8,7,3.2c3.2,1.3,5.5,2.5,7,3.6s2.6,2.4,3.3,3.9C354.7,98.6,355,100.4,355,102.4z"/>
					</g>
				</g>
				<g>
					<g>
						<polyline class="st5" points="24.1,122.2 40.3,112.9 40.3,94.1 24.1,84.8 						"/>
						<path class="st3" d="M57.3,47.8c-0.5-0.3-1.1-0.3-1.6,0L24.1,66l0,0l0,0v18.7l0,0l0,0l16.2,9.4l13.9-8c1.1-0.6,1.1-2.1,0-2.7
							l-11.5-6.6c-1.1-0.6-1.1-2.1,0-2.7l13.1-7.5c0.5-0.3,1.1-0.3,1.6,0l15.4,8.9L88.9,66L57.3,47.8z"/>
						<path class="st3" d="M88.9,122.2v-18.7l0,0l0,0l-16.2-9.4l-13.9,8c-1.1,0.6-1.1,2.1,0,2.7l11.5,6.6c1.1,0.6,1.1,2.1,0,2.7
							l-13.1,7.5c-0.5,0.3-1.1,0.3-1.6,0l-15.4-8.9L24,122.1l31.7,18.3c0.5,0.3,1.1,0.3,1.6,0L88.9,122.2L88.9,122.2L88.9,122.2z"/>
						<polygon class="st5" points="88.9,103.5 88.9,84.8 88.9,66 72.7,75.4 72.7,94.1 						"/>
						<polygon class="st6" points="88.9,103.5 88.9,84.8 88.9,66 72.7,75.4 72.7,94.1 						"/>
						<polygon class="st6" points="24.1,84.8 24.1,103.5 24.1,122.2 40.3,112.9 40.3,94.1 						"/>
					</g>
				</g>
			</g>
			<path class="st7" d="M434.8,87.8c-3.5,0-6.4,2.8-6.4,6.3s2.9,6.3,6.4,6.3s6.4-2.8,6.4-6.3C441.2,90.6,438.3,87.8,434.8,87.8z
				 M448.3,80.7l-4.5,4.5c2.3,2.3,3.7,5.5,3.7,9s-1.4,6.7-3.7,9l4.5,4.5c3.5-3.5,5.6-8.2,5.6-13.5C453.9,88.9,451.8,84.1,448.3,80.7
				z M421.3,80.7c-3.5,3.5-5.6,8.2-5.6,13.5c0,5.2,2.1,10,5.6,13.5l4.5-4.5c-2.3-2.3-3.7-5.5-3.7-9s1.4-6.7,3.7-9L421.3,80.7z
				 M457.3,71.7l-4.5,4.5c4.6,4.6,7.5,10.9,7.5,18c0,7-2.8,13.4-7.5,18l4.5,4.5c5.8-5.7,9.3-13.7,9.3-22.4
				C466.7,85.4,463.1,77.4,457.3,71.7z M412.3,71.7c-5.8,5.7-9.3,13.7-9.3,22.4c0,8.8,3.6,16.7,9.3,22.4l4.5-4.5
				c-4.6-4.6-7.5-10.9-7.5-18c0-7,2.8-13.4,7.5-18L412.3,71.7z"/>
		</g>
		<path class="st8" d="M239.4,35.5L239.4,35.5c0-3.1,2.5-5.6,5.6-5.6h132.1c3.1,0,5.6,2.5,5.6,5.6l0,0c0,3.1-2.5,5.6-5.6,5.6H245
			C241.9,41.1,239.4,38.6,239.4,35.5z"/>
		<path class="st8" d="M210.8,35.5L210.8,35.5c0-3.1,2.5-5.6,5.6-5.6h4.2c3.1,0,5.6,2.5,5.6,5.6l0,0c0,3.1-2.5,5.6-5.6,5.6h-4.2
			C213.3,41.1,210.8,38.6,210.8,35.5z"/>
		<path class="st8" d="M180.9,167.4L180.9,167.4c0-3.1,2.5-5.6,5.6-5.6h4.2c3.1,0,5.6,2.5,5.6,5.6l0,0c0,3.1-2.5,5.6-5.6,5.6h-4.2
			C183.4,173,180.9,170.5,180.9,167.4z"/>
		<path class="st8" d="M46.2,167.4L46.2,167.4c0-3.1,2.5-5.6,5.6-5.6h117.4c3.1,0,5.6,2.5,5.6,5.6l0,0c0,3.1-2.5,5.6-5.6,5.6H51.8
			C48.7,173,46.2,170.5,46.2,167.4z"/>
	</g>
	<path class="st9" d="M490.1,188v-50.3H280.6c-29.8,0-54.4,22-58.6,50.6L490.1,188z"/>
</g>
<g>
	<g>
		<defs>
			<rect id="SVGID_6_" x="-6.7" y="-9.3" width="723" height="1419.7"/>
		</defs>
		<clipPath id="SVGID_7_">
			<use xlink:href="#SVGID_6_"  style="overflow:visible;"/>
		</clipPath>
		<g class="st10">
			<path class="st11" d="M254.2,500.3l258.2,224.1c8.9,7.7,23,1.2,25.8-10.2l0,0c8.1-33.3,25.2-63.8,49.4-88.1l37.1-37.1
				c17-17,44.6-18.1,61.6,0.2l0,0c17,16.8,17.1,44.1,0.3,61.1c-0.1,0.1-0.2,0.2-0.2,0.2l-7.2,7c-16.5,16.5-25.8,38.9-25.8,62.3
				l0.2,114.7c0.2,35.9-13.9,70.4-39.1,95.9L588,957.3l1.2,677.8l-240.9,0.5V1028c0-47.6-58.9-43.6-58.9-140.5
				c0-63.7-28.1-39-28.1-39L254.2,500.3z"/>
			<polygon class="st11" points="335.1,2455.5 601.3,2454.9 600.2,1060.1 334,1060.6 			"/>
			<path class="st11" d="M260.5,615.8l-101.9-88.4c-17.3-15.1-19.2-41.3-4.1-58.7l0,0l0,0c15.1-17.3,41.3-19.1,58.6-4.1L315,553
				L260.5,615.8z"/>
			<path class="st12" d="M254.2,500.3l258.2,224.1c8.9,7.7,23,1.2,25.8-10.2l0,0c8.1-33.3,25.2-63.8,49.4-88.1l37.1-37.1
				c17-17,44.6-18.1,61.6,0.2l0,0c17,16.8,17.1,44.1,0.3,61.1c-0.1,0.1-0.2,0.2-0.2,0.2l-7.2,7c-16.5,16.5-25.8,38.9-25.8,62.3
				l0.2,114.7c0.2,35.9-13.9,70.4-39.1,95.9L588,957.3l1.2,677.8l-240.9,0.5V1028c0-47.6-58.9-43.6-58.9-140.5
				c0-63.7-28.1-39-28.1-39L254.2,500.3z"/>
			<polygon class="st12" points="335.1,2455.5 601.3,2454.9 600.2,1060.1 334,1060.6 			"/>
			<path class="st12" d="M260.5,615.8l-101.9-88.4c-17.3-15.1-19.2-41.3-4.1-58.7l0,0l0,0c15.1-17.3,41.3-19.1,58.6-4.1L315,553
				L260.5,615.8z"/>
			<path class="st13" d="M292.7,153.4l266.4-0.5c27.3,0,49.4,22,49.5,49.3l1.1,654.7c0,27.3-22,49.4-49.3,49.5L294,906.9
				c-27.3,0-49.4-22-49.5-49.3l-1.1-654.7C243.3,175.6,265.4,153.5,292.7,153.4z"/>
			<path class="st14" d="M293.9,909.2c-28.5,0-51.6-23.1-51.7-51.6L241,202.9c0-28.5,23.1-51.7,51.6-51.8l266.4-0.5
				c28.5,0,51.7,23.1,51.8,51.6l1.2,654.7c0.1,28.6-23.1,51.8-51.6,51.8l0,0L293.9,909.2z"/>
			<path class="st15" d="M559.2,152.9c27.2,0,49.4,22.1,49.4,49.3l1.2,654.7c0.1,27.3-22,49.4-49.3,49.5l0,0L294,906.9h-0.1
				c-27.2,0-49.3-22.1-49.4-49.3l-1.2-654.7c0-27.3,22-49.4,49.3-49.5l0,0L559.2,152.9L559.2,152.9 M559.2,148.3L559.2,148.3
				l-266.6,0.5c-29.8,0.1-53.9,24.3-53.9,54.1l1.2,654.7c0.1,29.8,24.2,53.8,54,53.9h0.1l266.5-0.5c29.8-0.1,53.9-24.3,53.9-54.1
				l-1.2-654.7C613.1,172.5,588.9,148.4,559.2,148.3L559.2,148.3z"/>
			
				<rect x="265.3" y="242" transform="matrix(1 -1.745323e-03 1.745323e-03 1 -0.9242 0.7453)" class="st16" width="322.5" height="575.8"/>
			<path class="st17" d="M161.6,589.2c11.4-19.9,36.8-26.9,56.7-15.5l0,0l88.8,50.7c21.4,12.2,31.4,39.1,20.7,58.8
				c-11.2,20.5-38.5,26.8-60.6,14.2L177.1,646C157.1,634.6,150.2,609.2,161.6,589.2L161.6,589.2L161.6,589.2z"/>
			<path class="st17" d="M274.7,635.6c4-7.1,13-9.5,20.1-5.5l0,0l10.5,6c14.5,8.3,20.5,27.8,12.9,41.9l-0.2,0.3
				c-8.3,14.7-27,19.9-41.7,11.6h-0.1l-11.7-6.7c-7.1-4-9.5-13-5.5-20.1L274.7,635.6z"/>
			<path class="st17" d="M165.8,686.7c11.4-19.9,36-27.3,55-16.5l84.5,48.3c20.4,11.6,29.4,37.9,18.7,57.6
				c-11.2,20.5-37.6,27.3-58.7,15.3l-85.7-49C160.6,731.6,154.5,706.6,165.8,686.7z"/>
			<path class="st17" d="M270.9,728.4c4-7.1,13-9.5,20.1-5.5l0,0l10.5,6c14.5,8.3,20.5,27.8,12.9,41.8l-0.2,0.3
				c-8.3,14.7-27,19.9-41.7,11.6c0,0,0,0-0.1,0l-11.7-6.7c-7.1-4-9.5-13-5.5-20.1l0,0L270.9,728.4z"/>
			<path class="st17" d="M171.1,785.7c11.4-19.9,33.8-28.6,50.1-19.2l72.6,41.5c17.5,10,24,34.8,13.2,54.5
				c-11.2,20.4-35.3,28.6-53.4,18.3L180,838.7C163.7,829.4,159.8,805.7,171.1,785.7"/>
			<path class="st17" d="M254,814.8c4-7.1,13-9.5,20.1-5.5l10.5,6c14.5,8.3,20.5,27.8,12.9,41.8l-0.2,0.3
				c-8.3,14.7-27,19.9-41.7,11.6c0,0-0.1,0-0.1-0.1l-11.7-6.7c-7.1-4-9.5-13-5.5-20.1l0,0L254,814.8z"/>
			<path class="st16" d="M161.6,589.2c11.4-19.9,36.8-26.9,56.7-15.5l0,0l88.8,50.7c21.4,12.2,31.4,39.1,20.7,58.8
				c-11.2,20.5-38.5,26.8-60.6,14.2L177.1,646C157.1,634.6,150.2,609.2,161.6,589.2L161.6,589.2L161.6,589.2z"/>
			<path class="st16" d="M274.7,635.6c4-7.1,13-9.5,20.1-5.5l0,0l10.5,6c14.5,8.3,20.5,27.8,12.9,41.9l-0.2,0.3
				c-8.3,14.7-27,19.9-41.7,11.6h-0.1l-11.7-6.7c-7.1-4-9.5-13-5.5-20.1L274.7,635.6z"/>
			<path class="st16" d="M165.8,686.7c11.4-19.9,36-27.3,55-16.5l84.5,48.3c20.4,11.6,29.4,37.9,18.7,57.6
				c-11.2,20.5-37.6,27.3-58.7,15.3l-85.7-49C160.6,731.6,154.5,706.6,165.8,686.7z"/>
			<path class="st16" d="M270.9,728.4c4-7.1,13-9.5,20.1-5.5l0,0l10.5,6c14.5,8.3,20.5,27.8,12.9,41.8l-0.2,0.3
				c-8.3,14.7-27,19.9-41.7,11.6c0,0,0,0-0.1,0l-11.7-6.7c-7.1-4-9.5-13-5.5-20.1l0,0L270.9,728.4z"/>
			<path class="st16" d="M171.1,785.7c11.4-19.9,33.8-28.6,50.1-19.2l72.6,41.5c17.5,10,24,34.8,13.2,54.5
				c-11.2,20.4-35.3,28.6-53.4,18.3L180,838.7C163.7,829.4,159.8,805.7,171.1,785.7L171.1,785.7z"/>
			<path class="st16" d="M254,814.8c4-7.1,13-9.5,20.1-5.5l10.5,6c14.5,8.3,20.5,27.8,12.9,41.8l-0.2,0.3
				c-8.3,14.7-27,19.9-41.7,11.6c0,0-0.1,0-0.1-0.1l-11.7-6.7c-7.1-4-9.5-13-5.5-20.1l0,0L254,814.8z"/>
		</g>
	</g>
</g>
<g>
	<path class="st7" d="M407.6,515.6c0,10.4,8.5,18.8,18.9,18.8s18.9-8.4,18.9-18.8c0-10.4-8.5-18.8-18.9-18.8
		S407.6,505.2,407.6,515.6z M369.9,515.6c0,15.5,6.3,29.6,16.6,39.9l13.3-13.3c-6.8-6.8-11.1-16.2-11.1-26.6
		c0-10.4,4.3-19.8,11.1-26.6l-13.3-13.3C376.2,486,369.9,500.1,369.9,515.6z M453.3,489c6.8,6.8,11.1,16.2,11.1,26.6
		c0,10.4-4.3,19.8-11.1,26.6l13.3,13.3c10.3-10.2,16.6-24.4,16.6-39.9s-6.3-29.6-16.6-39.9L453.3,489z M332.1,515.6
		c0,26,10.6,49.5,27.7,66.5l13.3-13.3c-13.7-13.5-22.1-32.3-22.1-53.2c0-20.8,8.4-39.7,22.1-53.2l-13.3-13.3
		C342.6,466.1,332.1,489.6,332.1,515.6z M480,462.4c13.7,13.5,22.1,32.4,22.1,53.2c0,20.9-8.4,39.7-22.1,53.2l13.3,13.3
		c17.1-17,27.7-40.5,27.7-66.5s-10.6-49.5-27.7-66.5L480,462.4z"/>
	<g class="st18">
		<path class="st19" d="M413.7,599.1h-6.4l-9.3-20.7v20.7h-6.4v-31.6h6.4l9.4,20.7v-20.7h6.4V599.1z"/>
		<path class="st19" d="M435.2,586.2h-9.9v12.9h-6.4v-31.6h17.5v5.3h-11.1v8.1h9.9V586.2z"/>
		<path class="st19" d="M461.4,588.6c-0.2,3.6-1.2,6.3-3,8.2c-1.9,1.9-4.5,2.8-7.9,2.8c-3.6,0-6.3-1.2-8.2-3.5
			c-1.9-2.4-2.9-5.7-2.9-10.1v-5.3c0-4.3,1-7.7,3-10c2-2.4,4.7-3.5,8.2-3.5c3.4,0,6.1,1,7.8,2.9c1.8,1.9,2.8,4.7,3,8.3h-6.4
			c-0.1-2.2-0.4-3.8-1-4.6c-0.6-0.8-1.8-1.3-3.5-1.3c-1.7,0-2.9,0.6-3.6,1.8s-1.1,3.2-1.1,5.9v6c0,3.1,0.4,5.3,1.1,6.5
			c0.7,1.2,1.9,1.8,3.6,1.8c1.7,0,2.8-0.4,3.5-1.2s1-2.3,1.1-4.4H461.4z"/>
	</g>
</g>
</svg>
