<svg xmlns="http://www.w3.org/2000/svg" width="45" height="30" viewBox="0 0 45 30">
    <path fill="#373D3F" fill-rule="nonzero" d="M5.156 17.813L3.75 15h9.844l-1.125-2.813H3.28L1.875 9.376H16.5l-1.125-2.813H1.613L0 3.75h7.031A3.75 3.75 0 0 1 10.781 0h22.5v7.5h5.625l5.625 7.5v9.375h-3.75a5.625 5.625 0 1 1-11.25 0h-7.5a5.625 5.625 0 1 1-11.25 0h-3.75v-6.563H5.156zm30 9.375a2.812 2.812 0 1 0 0-5.625 2.812 2.812 0 0 0 0 5.625zm2.813-16.875H33.28V15h8.363l-3.675-4.688zM16.406 27.186a2.812 2.812 0 1 0 0-5.624 2.812 2.812 0 0 0 0 5.625z"/>
</svg>
