<svg xmlns="http://www.w3.org/2000/svg" width="37" height="30" viewBox="0 0 37 30">
    <path fill="#373D3F" fill-rule="nonzero" d="M2.133 0L0 2.117l2.45 2.45C1.733 5 1.017 5.483.333 6l3 4c.884-.667 1.8-1.25 2.767-1.783l3.717 3.716C8.583 12.5 7.4 13.183 6.333 14l3 4a14.809 14.809 0 0 1 4.334-2.217L17.917 20a10.299 10.299 0 0 0-5.584 2l6 8 4.1-5.45L27.9 30l2.1-2.133L2.133 0zm16.2 0c-3.583 0-7 .633-10.166 1.783l3.983 4A24.658 24.658 0 0 1 18.333 5c5.634 0 10.834 1.85 15 5l3-4a29.843 29.843 0 0 0-18-6zm0 10c-.633 0-1.25 0-1.866.083l5.316 5.334A14.757 14.757 0 0 1 27.333 18l3-4a19.86 19.86 0 0 0-12-4z"/>
</svg>
