<svg xmlns="http://www.w3.org/2000/svg" width="24" height="24" viewBox="0 0 24 24">
    <g fill="#999" fill-rule="nonzero">
        <path d="M12.95 0a6.896 6.896 0 0 0-6.335 4.168h1.03c.977-1.975 2.986-3.33 5.304-3.33 3.28 0 5.94 2.712 5.94 6.058a6.074 6.074 0 0 1-3.21 5.382v.951A6.897 6.897 0 0 0 12.949 0zM6.315 5.006v.01c.064-.007.127-.01.191-.01h-.19zM10.513 13.848a.224.224 0 0 1-.224.227h-.614v.614a.224.224 0 1 1-.447 0v-.614h-.615a.224.224 0 1 1 0-.448h.614v-.614a.225.225 0 0 1 .223-.224.22.22 0 0 1 .155.063c.031.03.053.068.062.11a.208.208 0 0 1 .006.05v.615h.614c.123 0 .224.098.226.221z"/>
        <path d="M12.95 1.672a5.217 5.217 0 0 0-4.453 2.493h1.09A4.26 4.26 0 0 1 12.95 2.51c2.372 0 4.295 1.962 4.295 4.381a4.408 4.408 0 0 1-1.565 3.383v1.068a5.22 5.22 0 0 0-2.73-9.671z"/>
        <path d="M16.513 6.892a3.565 3.565 0 0 0-5.858-2.727h2.294a2.728 2.728 0 0 1 2.727 2.727v2.294a3.551 3.551 0 0 0 .837-2.294zM11.474 14.265c-.123 0-.224.1-.224.224v.691c0 .258-.21.468-.467.468h-.692a.224.224 0 1 0 0 .447h.692c.505 0 .914-.41.915-.915v-.691c0-.124-.1-.224-.224-.224zm-2.663 1.383h-.692a.469.469 0 0 1-.468-.468v-.691a.222.222 0 0 0-.223-.224c-.124 0-.224.1-.224.224v.691c0 .505.41.915.915.915h.692a.224.224 0 1 0 0-.447zM6.315 5.003v.01c.063-.007.126-.01.19-.01h-.19z"/>
        <path d="M11.474 14.265c-.123 0-.224.1-.224.224v.691c0 .258-.21.468-.467.468h-.692a.224.224 0 1 0 0 .447h.692c.505 0 .914-.41.915-.915v-.691c0-.124-.1-.224-.224-.224zm-2.663 1.383h-.692a.469.469 0 0 1-.468-.468v-.691a.222.222 0 0 0-.223-.224c-.124 0-.224.1-.224.224v.691c0 .505.41.915.915.915h.692a.224.224 0 1 0 0-.447z"/>
        <path d="M12.398 5.003H6.503c-.064 0-.127 0-.19.008a2.448 2.448 0 0 0-2.25 2.432V21.56A2.448 2.448 0 0 0 6.503 24h5.895a2.448 2.448 0 0 0 2.441-2.44V7.442a2.448 2.448 0 0 0-2.44-2.44zM9.451 22.827a1.052 1.052 0 1 1 0-2.104 1.052 1.052 0 0 1 0 2.104zm2.878-2.94H6.573a.814.814 0 0 1-.813-.814V8.683a.814.814 0 0 1 .813-.813h5.756c.45 0 .814.365.814.814v10.39c0 .448-.364.813-.814.813z"/>
        <path d="M11.474 14.265c-.123 0-.224.1-.224.224v.691c0 .258-.21.468-.467.468h-.692a.224.224 0 1 0 0 .447h.692c.505 0 .914-.41.915-.915v-.691c0-.124-.1-.224-.224-.224zm-2.663 1.383h-.692a.469.469 0 0 1-.468-.468v-.691a.222.222 0 0 0-.223-.224c-.124 0-.224.1-.224.224v.691c0 .505.41.915.915.915h.692a.224.224 0 1 0 0-.447zM11.698 12.517v.691a.224.224 0 0 1-.448 0v-.691a.469.469 0 0 0-.467-.468h-.692a.224.224 0 0 1 0-.448h.692c.505.002.914.41.915.916z"/>
        <path d="M11.698 14.489v.691c0 .505-.41.915-.915.915h-.692a.224.224 0 1 1 0-.447h.692c.258 0 .467-.21.467-.468v-.691a.224.224 0 0 1 .448 0zM9.034 11.825c0 .124-.1.224-.223.224h-.692a.469.469 0 0 0-.468.468v.691a.224.224 0 0 1-.447 0v-.691a.918.918 0 0 1 .915-.915h.692a.222.222 0 0 1 .223.224zM9.034 15.872c0 .123-.1.223-.223.223h-.692a.917.917 0 0 1-.915-.915v-.691a.224.224 0 0 1 .447 0v.691c0 .258.21.468.468.468h.692c.123 0 .223.1.223.224z"/>
    </g>
</svg>
