<svg viewBox="0 0 32 46" version="1.1" xmlns="http://www.w3.org/2000/svg" xmlns:xlink="http://www.w3.org/1999/xlink" id="el_WjnzFwXQ8"><style>@-webkit-keyframes kf_el_V8JyIzfJco_an_w9J-b04k7{0%{opacity: 1;}25%{opacity: 1;}50%{opacity: 1;}75%{opacity: 0;}100%{opacity: 1;}}@keyframes kf_el_V8JyIzfJco_an_w9J-b04k7{0%{opacity: 1;}25%{opacity: 1;}50%{opacity: 1;}75%{opacity: 0;}100%{opacity: 1;}}@-webkit-keyframes kf_el_zAb8y90SgX_an_I1n-CywLw{0%{opacity: 1;}25%{opacity: 1;}50%{opacity: 0;}75%{opacity: 1;}100%{opacity: 1;}}@keyframes kf_el_zAb8y90SgX_an_I1n-CywLw{0%{opacity: 1;}25%{opacity: 1;}50%{opacity: 0;}75%{opacity: 1;}100%{opacity: 1;}}@-webkit-keyframes kf_el_qFZdZlAsmN_an_Z4PQ5Rxj-{0%{opacity: 1;}25%{opacity: 0;}50%{opacity: 1;}75%{opacity: 1;}100%{opacity: 1;}}@keyframes kf_el_qFZdZlAsmN_an_Z4PQ5Rxj-{0%{opacity: 1;}25%{opacity: 0;}50%{opacity: 1;}75%{opacity: 1;}100%{opacity: 1;}}@-webkit-keyframes kf_el_oM_VEiRC0a_an_KwEUWcju9{0%{opacity: 0;}25%{opacity: 1;}50%{opacity: 1;}75%{opacity: 1;}100%{opacity: 0;}}@keyframes kf_el_oM_VEiRC0a_an_KwEUWcju9{0%{opacity: 0;}25%{opacity: 1;}50%{opacity: 1;}75%{opacity: 1;}100%{opacity: 0;}}#el_WjnzFwXQ8 *{-webkit-animation-duration: 1.5s;animation-duration: 1.5s;-webkit-animation-iteration-count: infinite;animation-iteration-count: infinite;-webkit-animation-timing-function: cubic-bezier(0, 0, 1, 1);animation-timing-function: cubic-bezier(0, 0, 1, 1);}#el_wxcPkHXd0o{stroke: none;stroke-width: 1;fill: none;}#el_oM_VEiRC0a{fill: url(#linearGradient-1);-webkit-animation-fill-mode: backwards;animation-fill-mode: backwards;opacity: 0;-webkit-animation-name: kf_el_oM_VEiRC0a_an_KwEUWcju9;animation-name: kf_el_oM_VEiRC0a_an_KwEUWcju9;-webkit-animation-timing-function: cubic-bezier(0, 0, 1, 1);animation-timing-function: cubic-bezier(0, 0, 1, 1);}#el_zAb8y90SgX{fill: url(#linearGradient-2);-webkit-animation-fill-mode: backwards;animation-fill-mode: backwards;opacity: 1;-webkit-animation-name: kf_el_zAb8y90SgX_an_I1n-CywLw;animation-name: kf_el_zAb8y90SgX_an_I1n-CywLw;-webkit-animation-timing-function: cubic-bezier(0, 0, 1, 1);animation-timing-function: cubic-bezier(0, 0, 1, 1);}#el_qFZdZlAsmN{fill: #00ADEE;-webkit-animation-fill-mode: backwards;animation-fill-mode: backwards;opacity: 1;-webkit-animation-name: kf_el_qFZdZlAsmN_an_Z4PQ5Rxj-;animation-name: kf_el_qFZdZlAsmN_an_Z4PQ5Rxj-;-webkit-animation-timing-function: cubic-bezier(0, 0, 1, 1);animation-timing-function: cubic-bezier(0, 0, 1, 1);}#el_V8JyIzfJco{fill: #00ADEE;-webkit-animation-fill-mode: backwards;animation-fill-mode: backwards;opacity: 1;-webkit-animation-name: kf_el_V8JyIzfJco_an_w9J-b04k7;animation-name: kf_el_V8JyIzfJco_an_w9J-b04k7;-webkit-animation-timing-function: cubic-bezier(0, 0, 1, 1);animation-timing-function: cubic-bezier(0, 0, 1, 1);}</style>
    <!-- Generator: Sketch 52.6 (67491) - http://www.bohemiancoding.com/sketch -->
    <title>Artboard</title>
    <desc>Created with Sketch.</desc>
    <defs>
        <linearGradient x1="49.96875%" y1="100%" x2="49.96875%" y2="-0.00349478438%" id="linearGradient-1">
            <stop stop-color="#6DCEF5" offset="0%"/>
            <stop stop-color="#00ADEE" offset="100%"/>
        </linearGradient>
        <linearGradient x1="50.0052121%" y1="100.032546%" x2="50.0052121%" y2="0%" id="linearGradient-2">
            <stop stop-color="#00ADEE" offset="0%"/>
            <stop stop-color="#6DCEF5" offset="100%"/>
        </linearGradient>
    </defs>
    <g id="el_wxcPkHXd0o" fill-rule="evenodd">
        <g id="el_KfYl_qcKc2" fill-rule="nonzero">
            <g id="el_-JEBZafUNw">
                <path d="M16.3432449,0.102530959 C16.1028949,-0.0341769863 15.8085133,-0.0341769863 15.5681633,0.102530959 L0,9.10919763 L0,18.332531 L7.98367347,22.9591976 L14.7930816,19.0158643 C15.0271835,18.8756595 15.1705211,18.622484 15.1705211,18.3491976 C15.1705211,18.0759113 15.0271835,17.8227358 14.7930816,17.682531 L9.13797959,14.412531 C8.90556307,14.2710791 8.76365933,14.0183477 8.76365933,13.7458643 C8.76365933,13.4733809 8.90556307,13.2206494 9.13797959,13.0791976 L15.5681633,9.33253096 C15.8076008,9.19240285 16.1038073,9.19240285 16.3432449,9.33253096 L23.9510204,13.7258643 L31.9346939,9.10919763 L16.3432449,0.102530959 Z" id="el_oM_VEiRC0a"/>
                <path d="M31.9114082,36.8066667 L31.9114082,27.5733333 L23.9510204,22.96 L17.1183265,26.9 C16.88591,27.0414518 16.7440063,27.2941833 16.7440063,27.5666667 C16.7440063,27.8391501 16.88591,28.0918815 17.1183265,28.2333333 L22.7734286,31.5033333 C23.0058451,31.6447852 23.1477488,31.8975166 23.1477488,32.17 C23.1477488,32.4424834 23.0058451,32.6952148 22.7734286,32.8366667 L16.3432449,36.58 C16.1038073,36.7201281 15.8076008,36.7201281 15.5681633,36.58 L7.98367347,32.19 L0,36.8066667 L15.5681633,45.8066667 C15.8085133,45.9433746 16.1028949,45.9433746 16.3432449,45.8066667 L31.9114082,36.8066667 Z" id="el_zAb8y90SgX"/>
            </g>
            <polygon id="el_qFZdZlAsmN" points="31.9147347 27.5733333 31.9147347 18.3433333 31.9147347 9.11 23.9343878 13.7266667 23.9343878 22.96"/>
            <polygon id="el_V8JyIzfJco" points="0 18.3433333 0 27.5733333 0 36.8066667 7.97702041 32.19 7.97702041 22.96"/>
        </g>
    </g>
</svg>