<svg xmlns="http://www.w3.org/2000/svg" width="120" height="120" viewBox="0 0 120 120">
    <g fill="none" fill-rule="nonzero">
        <path fill="#BCDFF1" d="M0 0h120v120H0z"/>
        <path fill="#FFF" d="M38.08 105.257l-21.612 11.988c-1.268.704-2.408 1.568-3.468 2.51 17.569.245 75.708.245 93 .245-1.159-.995-2.416-1.89-3.81-2.596l-23.141-11.766c-2.99-1.52-4.879-4.628-4.879-8.027v-9.234c.65-.753 1.394-1.72 2.19-2.863 3.153-4.53 5.54-9.515 7.193-14.743a7.377 7.377 0 0 0 5.155-7.032v-9.857c0-2.168-.949-4.105-2.422-5.461V34.173S89.164 12 59.638 12 32.99 34.173 32.99 34.173V48.42c-1.476 1.356-2.421 3.293-2.421 5.461v9.857a7.42 7.42 0 0 0 3.35 6.201c2.422 10.72 8.763 18.437 8.763 18.437v9.006c-.003 3.28-1.769 6.301-4.603 7.874z" opacity=".8"/>
    </g>
</svg>
