<svg xmlns="http://www.w3.org/2000/svg" xmlns:xlink="http://www.w3.org/1999/xlink" width="102" height="102" viewBox="0 0 102 102">
    <defs>
        <rect id="a" width="100" height="100" rx="2"/>
    </defs>
    <g fill="none" fill-rule="evenodd">
        <use fill="#F2F3F4" fill-rule="nonzero" stroke="#DADEDF" transform="translate(1 1)" xlink:href="#a"/>
        <path d="M27 27h48v48H27z"/>
        <path fill="#C1C7C9" d="M51 47.7a4.795 4.795 0 0 0-4.8 4.8c0 2.655 2.145 4.8 4.8 4.8s4.8-2.145 4.8-4.8-2.145-4.8-4.8-4.8m5.302 10.102a7.516 7.516 0 0 1-2.82 1.769A7.48 7.48 0 0 1 51 60a7.464 7.464 0 0 1-2.481-.43A7.477 7.477 0 0 1 43.5 52.5c0-4.14 3.36-7.5 7.5-7.5 4.14 0 7.5 3.36 7.5 7.5 0 2.07-.84 3.946-2.198 5.303M63 40.5h-4.755l-2.745-3h-9l-2.745 3H39c-1.65 0-3 1.35-3 3v18c0 1.65 1.35 3 3 3h24c1.65 0 3-1.35 3-3v-18c0-1.65-1.35-3-3-3"/>
        <path fill="#C1C7C9" fill-rule="nonzero" stroke="#F2F3F4" stroke-width="2" d="M68.25 66.25h-5.5v-.5l-.5.5h-.5l.25.25-.25.25h.5l.5.5v-.5h5.5v.5l.5-.5h.5L69 66.5l.25-.25h-.5l-.5-.5v.5zm-3-2.5v5.5h-.5l.5.5v.5l.25-.25.25.25v-.5l.5-.5h-.5v-5.5h.5l-.5-.5v-.5l-.25.25-.25-.25v.5l-.5.5h.5zM65.5 58c4.692 0 8.5 3.808 8.5 8.5S70.192 75 65.5 75a8.503 8.503 0 0 1-8.5-8.5c0-4.692 3.808-8.5 8.5-8.5z"/>
    </g>
</svg>
