<svg xmlns="http://www.w3.org/2000/svg" width="100" height="100" viewBox="0 0 100 100">
    <g fill="none" fill-rule="nonzero">
        <path fill="#6BCC3C" d="M50 0C22.428 0 0 22.428 0 50s22.428 50 50 50 50-22.432 50-50S77.572 0 50 0z"/>
        <path fill="#FFF" stroke="#FFF" d="M72.94 32.61a3.875 3.875 0 0 0-5.469.264L43.846 58.888 32.432 47.285a3.869 3.869 0 0 0-5.476-.046 3.869 3.869 0 0 0-.047 5.476l14.288 14.524a3.868 3.868 0 0 0 2.761 1.158c.023 0 .05 0 .074.004a3.875 3.875 0 0 0 2.792-1.27l26.379-29.048a3.875 3.875 0 0 0-.263-5.473z"/>
    </g>
</svg>
