<svg xmlns="http://www.w3.org/2000/svg" width="512" height="512" viewBox="0 0 512 512">
    <g fill="none" fill-rule="nonzero">
        <path fill="#8C979A" d="M413.33 447.246L287.094 18.223C283.84 7.423 273.873 0 262.603 0h-16.834c-11.293 0-21.24 7.4-24.49 18.223L94.998 447.246H73.459c-17.72 0-32.083 14.364-32.083 32.084 0 17.72 14.364 32.083 32.083 32.083h363.614c17.72 0 32.083-14.364 32.083-32.083 0-17.72-14.364-32.084-32.083-32.084H413.33z"/>
        <g fill="#F7F7F9">
            <path d="M120.18 361.69h267.976l-25.174-85.556H145.364zM170.547 190.578h167.26l-25.174-85.557H195.73z"/>
        </g>
        <path fill="#6F7C80" d="M437.073 447.247H73.459c-17.72 0-32.083 14.363-32.083 32.084 0 17.718 14.364 32.083 32.083 32.083h363.614c17.72 0 32.083-14.365 32.083-32.083 0-17.72-14.365-32.084-32.083-32.084z"/>
    </g>
</svg>
