<svg xmlns="http://www.w3.org/2000/svg" width="25" height="13" viewBox="0 0 25 13">
    <g fill="#d13423" fill-rule="evenodd">
        <path d="M5.023 3.181c.984 0 1.786.8 1.786 1.783a1.787 1.787 0 0 1-3.573 0c0-.983.802-1.783 1.787-1.783zM1.108 6.098c.088.303.211.596.367.87l-.443.558a.457.457 0 0 0 .034.607l.764.762a.458.458 0 0 0 .608.034l.556-.438c.286.164.59.292.906.383l.084.713a.458.458 0 0 0 .454.404h1.08a.458.458 0 0 0 .455-.404l.08-.688c.34-.089.666-.22.971-.392l.538.424a.46.46 0 0 0 .608-.034l.764-.762a.455.455 0 0 0 .034-.607L8.55 7c.174-.3.31-.62.4-.953l.645-.074A.457.457 0 0 0 10 5.518V4.44a.457.457 0 0 0-.405-.453l-.636-.074a4.001 4.001 0 0 0-.383-.943l.39-.493a.457.457 0 0 0-.034-.607l-.762-.76a.458.458 0 0 0-.608-.034l-.48.38a4.03 4.03 0 0 0-.993-.416L6.016.42a.458.458 0 0 0-.454-.404h-1.08a.457.457 0 0 0-.455.404l-.072.62c-.359.095-.7.24-1.02.43l-.497-.394a.46.46 0 0 0-.608.034l-.764.762a.455.455 0 0 0-.034.607l.416.525c-.167.3-.293.62-.377.952l-.666.076A.457.457 0 0 0 0 4.485v1.078c0 .232.174.427.405.454l.703.081zM12.62 10.711a1.243 1.243 0 1 1-.209-2.477 1.243 1.243 0 0 1 .209 2.477m2.383-3.655l-.485-.41a.383.383 0 0 0-.51.014l-.268.251a2.771 2.771 0 0 0-.714-.23l-.075-.37a.387.387 0 0 0-.41-.308l-.632.054a.385.385 0 0 0-.352.371l-.012.375a2.777 2.777 0 0 0-.682.359l-.32-.212a.384.384 0 0 0-.506.072l-.41.488c-.125.149-.12.369.015.51l.28.299a2.869 2.869 0 0 0-.207.683l-.4.081a.387.387 0 0 0-.307.41l.054.632a.385.385 0 0 0 .37.352l.433.014c.078.206.181.402.306.585l-.242.364a.384.384 0 0 0 .073.506l.484.41c.15.126.37.12.51-.014l.318-.297c.208.097.426.17.65.212l.088.434c.039.19.216.323.41.308l.632-.054a.385.385 0 0 0 .352-.37l.014-.425c.23-.082.45-.193.65-.33l.35.231c.163.108.38.077.506-.072l.41-.485a.383.383 0 0 0-.014-.51l-.282-.299c.103-.219.178-.45.222-.686l.384-.079a.387.387 0 0 0 .308-.409l-.054-.632a.385.385 0 0 0-.37-.353l-.387-.012a2.793 2.793 0 0 0-.321-.634l.21-.317a.383.383 0 0 0-.069-.507M18.033 3.917a1.068 1.068 0 0 1-.026 2.134 1.068 1.068 0 0 1 .026-2.134zm-2.648.464a.405.405 0 0 0-.363.399l-.005.41a.404.404 0 0 0 .354.407l.301.039c.05.183.122.358.214.524l-.194.24c-.13.16-.12.39.024.538l.287.294a.405.405 0 0 0 .538.037l.242-.186c.17.1.35.18.538.235l.033.311a.405.405 0 0 0 .399.363l.41.005a.404.404 0 0 0 .407-.353l.037-.296c.205-.05.4-.126.584-.227l.227.184c.16.13.39.12.538-.025l.294-.287a.405.405 0 0 0 .037-.538l-.173-.225c.107-.179.19-.369.246-.568l.27-.028a.405.405 0 0 0 .363-.398l.005-.41a.404.404 0 0 0-.354-.408l-.263-.034a2.442 2.442 0 0 0-.222-.567l.164-.201c.13-.161.12-.391-.024-.539l-.287-.293a.405.405 0 0 0-.539-.038l-.196.151a2.385 2.385 0 0 0-.59-.256l-.026-.255a.405.405 0 0 0-.4-.363l-.41-.005a.404.404 0 0 0-.406.354l-.033.253c-.214.055-.42.14-.611.25l-.203-.166a.404.404 0 0 0-.538.024l-.295.289a.405.405 0 0 0-.038.538l.174.224c-.1.179-.18.368-.232.568l-.284.029z"/>
    </g>
</svg>
