<svg xmlns="http://www.w3.org/2000/svg" width="16" height="21" viewBox="0 0 16 21">
    <g fill="none" fill-rule="nonzero">
        <path fill="#DADEDF" d="M8.027 9.781c2.223 0 4.026-2.19 4.026-4.89C12.053 2.19 11.461 0 8.027 0 4.592 0 4 2.19 4 4.89c0 2.702 1.803 4.891 4.027 4.891z"/>
        <path fill="#000" d="M.007 17.5c-.006-.973-.012-.274 0 0zM15 17.5c.019-.15.007-1.045 0 0z"/>
        <path fill="#DADEDF" d="M15.991 17.253c-.078-4.95-.725-6.36-5.672-7.253 0 0-.696.887-2.319.887S5.68 10 5.68 10C.789 10.883.103 12.272.013 17.092c-.007.394-.01.414-.012.369v.52s1.178 2.374 8 2.374 8-2.374 8-2.374v-.385c-.001.028-.004-.027-.009-.343z"/>
    </g>
</svg>
