<svg xmlns="http://www.w3.org/2000/svg" width="19" height="19" viewBox="0 0 19 19">
    <g fill="#DADEDF" fill-rule="nonzero">
        <path d="M10.255 14.665l3.101-3.722a.621.621 0 0 0-.476-1.018h-1.861V.62a.62.62 0 0 0-.62-.62H9.157a.62.62 0 0 0-.62.62v9.305H6.675a.621.621 0 0 0-.476 1.018l3.102 3.722a.617.617 0 0 0 .953 0z"/>
        <path d="M19 17.843V3.417c0-.64-.518-1.158-1.157-1.158h-5.787v2.315h4.63v12.111H2.796V4.574h4.63V2.259H1.64C1 2.26.483 2.778.483 3.417v14.426C.483 18.483 1 19 1.64 19h16.203c.639 0 1.157-.517 1.157-1.157z"/>
    </g>
</svg>
