<?xml version="1.0" encoding="UTF-8"?>
<svg width="20px" height="20px" viewBox="0 0 20 20" version="1.1" xmlns="http://www.w3.org/2000/svg" xmlns:xlink="http://www.w3.org/1999/xlink">
    <!-- Generator: sketchtool 52.4 (67378) - http://www.bohemiancoding.com/sketch -->
    <title>10DB2BE2-2F34-4726-9627-67037DFA2B05</title>
    <desc>Created with sketchtool.</desc>
    <g id="Page-1" stroke="none" stroke-width="1" fill="none" fill-rule="evenodd">
        <g id="Menu" transform="translate(-27.000000, -433.000000)" fill="#00AEEF" fill-rule="nonzero">
            <g id="Group" transform="translate(27.000000, 429.000000)">
                <g id="logout-variant-(1)" transform="translate(0.000000, 4.000000)">
                    <path d="M12.3111111,13.9888889 L15.1888889,11.1111111 L4.44444444,11.1111111 L4.44444444,8.88888889 L15.1888889,8.88888889 L12.3111111,6.01111111 L13.8888889,4.44444444 L19.4444444,10 L13.8888889,15.5555556 L12.3111111,13.9888889 Z M17.7777778,0 C19.0050772,0 20,0.994922778 20,2.22222222 L20,7.41111111 L17.7777778,5.18888889 L17.7777778,2.22222222 L2.22222222,2.22222222 L2.22222222,17.7777778 L17.7777778,17.7777778 L17.7777778,14.8111111 L20,12.5888889 L20,17.7777778 C20,19.0050772 19.0050772,20 17.7777778,20 L2.22222222,20 C0.988888889,20 0,19 0,17.7777778 L0,2.22222222 C0,0.988888889 0.988888889,0 2.22222222,0 L17.7777778,0 Z" id="Shape"></path>
                </g>
            </g>
        </g>
    </g>
</svg>