<svg xmlns="http://www.w3.org/2000/svg" width="37" height="46" viewBox="0 0 37 46">
    <g fill="none" fill-rule="nonzero">
        <path fill="#2E94CE" d="M0 36.807l9.223-4.617v-9.23L0 18.343"/>
        <path fill="#F2F3F4" d="M18.897.103a1.03 1.03 0 0 0-.896 0L0 9.11v9.223l9.231 4.627 7.874-3.943c.27-.14.436-.394.436-.667s-.166-.526-.436-.667l-6.54-3.27c-.268-.141-.432-.394-.432-.666 0-.273.164-.526.433-.667L18 9.333c.277-.14.619-.14.896 0l8.796 4.394 9.231-4.617L18.897.103zM36.898 36.807v-9.234l-9.205-4.613-7.9 3.94c-.269.141-.433.394-.433.667 0 .272.164.525.433.666l6.539 3.27c.269.142.433.395.433.667s-.164.525-.433.667l-7.435 3.743c-.277.14-.62.14-.896 0l-8.77-4.39L0 36.807l18 9c.279.136.619.136.897 0l18-9z"/>
        <path fill="#2E94CE" d="M36.901 27.573V9.11l-9.227 4.617v9.233z"/>
        <path fill="#FFF" d="M36.901 27.573V9.11l-9.227 4.617v9.233zM0 18.343v18.464l9.223-4.617v-9.23z"/>
    </g>
</svg>
