<svg xmlns="http://www.w3.org/2000/svg" width="20" height="17" viewBox="0 0 20 17">
    <g fill="#00AEEF" fill-rule="nonzero">
        <path d="M12.323 2.065c.58-.257 1.24-.4 1.89-.4.376 0 .736.045 1.075.13a.2.2 0 0 0 .246-.22l-.05-.393C15.445.528 14.696 0 13.8 0c-.92 0-1.8.552-1.8 1.235l.04.655c.013.143.156.233.283.175z"/>
        <path d="M19.93 13.076l-.02-.119c0-.008-.004-.016-.004-.024l-.757-3.845c-.098-.888-.744-1.66-1.685-2.14l-.36-2.793C17.104 2.97 15.763 2 14.155 2c-1.607 0-3.137.961-3.137 2.151 0 .058.004.119.013.176l.02.303a3.175 3.175 0 0 0-1.067-.18c-.389 0-.753.065-1.076.184l.02-.307c.009-.057.013-.114.013-.176C8.94 2.965 7.407 2 5.804 2c-1.608 0-2.95.97-2.95 2.155l-.36 2.794C1.555 7.423.909 8.2.81 9.088l-.757 3.845c0 .008-.004.016-.004.024l-.02.119a2.797 2.797 0 0 0-.029.372c0 1.824 1.91 3.305 4.262 3.305 2.351 0 4.262-1.481 4.262-3.305v-1.513c.42.196.924.306 1.46.306a3.52 3.52 0 0 0 1.456-.302v1.509c0 1.824 1.91 3.305 4.261 3.305 2.348 0 4.262-1.481 4.262-3.305a3.7 3.7 0 0 0-.033-.372zM4.262 15.562c-1.665 0-3.072-.969-3.072-2.114 0-1.15 1.407-2.115 3.072-2.115 1.664 0 3.071.97 3.071 2.115 0 1.145-1.407 2.114-3.071 2.114zm5.722-4.368c-.7 0-1.268-.396-1.268-.883s.568-.884 1.268-.884c.699 0 1.268.397 1.268.884s-.569.883-1.268.883zm5.713 4.368c-1.664 0-3.071-.969-3.071-2.114 0-1.15 1.407-2.115 3.071-2.115 1.665 0 3.072.97 3.072 2.115 0 1.145-1.407 2.114-3.072 2.114z"/>
        <path d="M4.25 1.791c.34-.085.704-.13 1.077-.13.65 0 1.312.143 1.89.4a.198.198 0 0 0 .277-.171l.041-.655C7.535.552 6.655 0 5.735 0c-.895 0-1.64.528-1.684 1.182L4 1.575a.2.2 0 0 0 .25.216z"/>
    </g>
</svg>
