<?xml version="1.0" encoding="UTF-8"?>
<svg width="29px" height="20px" viewBox="0 0 29 20" version="1.1" xmlns="http://www.w3.org/2000/svg" xmlns:xlink="http://www.w3.org/1999/xlink">
    <!-- Generator: sketchtool 52.4 (67378) - http://www.bohemiancoding.com/sketch -->
    <title>641381D4-811A-4487-9114-642A49C1352D</title>
    <desc>Created with sketchtool.</desc>
    <g id="Page-1" stroke="none" stroke-width="1" fill="none" fill-rule="evenodd">
        <g id="Menu" transform="translate(-23.000000, -328.000000)" fill="#00AEEF" fill-rule="nonzero">
            <g id="Group-5" transform="translate(23.000000, 322.000000)">
                <g id="access-point-(1)" transform="translate(0.000000, 6.000000)">
                    <path d="M4.16368421,0 C1.59157895,2.56011315 0,6.09618105 0,10 C0,13.903819 1.59157895,17.4398868 4.16368421,20 L6.16736842,18.0056577 C4.10684211,15.9688826 2.84210526,13.1400283 2.84210526,10 C2.84210526,6.87411598 4.10684211,4.0311174 6.16736842,1.99434229 L4.16368421,0 Z M24.2573684,0 L22.2536842,1.99434229 C24.3142105,4.0311174 25.5789474,6.87411598 25.5789474,10 C25.5789474,13.1400283 24.3142105,15.9688826 22.2536842,18.0056577 L24.2573684,20 C26.8294737,17.4398868 28.4210526,13.903819 28.4210526,10 C28.4210526,6.09618105 26.8294737,2.56011315 24.2573684,0 Z M8.18526316,4.00282885 C6.63631579,5.54455446 5.68421053,7.66619519 5.68421053,10 C5.68421053,12.3338048 6.63631579,14.4554455 8.18526316,15.9971711 L10.1889474,14.0028289 C9.16578947,12.9844413 8.52631579,11.5700141 8.52631579,10 C8.52631579,8.42998586 9.16578947,7.0155587 10.1889474,5.99717115 L8.18526316,4.00282885 Z M20.2357895,4.00282885 L18.2321053,5.99717115 C19.2552632,7.0155587 19.8947368,8.42998586 19.8947368,10 C19.8947368,11.5700141 19.2552632,12.9844413 18.2321053,14.0028289 L20.2357895,15.9971711 C21.7847368,14.4554455 22.7368421,12.3338048 22.7368421,10 C22.7368421,7.66619519 21.7847368,5.54455446 20.2357895,4.00282885 Z M14.2105263,7.17114569 C12.6408749,7.17114569 11.3684211,8.4376669 11.3684211,10 C11.3684211,11.5623331 12.6408749,12.8288543 14.2105263,12.8288543 C15.7801777,12.8288543 17.0526316,11.5623331 17.0526316,10 C17.0526316,8.4376669 15.7801777,7.17114569 14.2105263,7.17114569 Z" id="Shape"></path>
                </g>
            </g>
        </g>
    </g>
</svg>