<svg xmlns="http://www.w3.org/2000/svg" width="17" height="17" viewBox="0 0 17 17">
    <path fill="#C1C7C9" fill-rule="nonzero" d="M11.02 6.299L1.946 16.451c-.357.357-.921.386-1.278.03l-.416-.416c-.357-.327-.327-.921.03-1.278l9.03-10.109-.009-.01c.683-.683.773-1.753.06-2.466C7.966.806 7.163.954 5.59.954 7.967-.086 9.69-.323 11.414.48c.743.327 1.04.624 1.634 1.218l1.07 1.07c.267.267.445.624.505.98.089.565-.06.684.327 1.1a.287.287 0 0 0 .416 0 .287.287 0 0 1 .416 0l1.04 1.04a.574.574 0 0 1 0 .832l-2.11 2.11a.574.574 0 0 1-.832 0l-.98-1.01a.287.287 0 0 1 0-.417.323.323 0 0 0 0-.446c-.417-.416-.535-.267-1.1-.326a1.71 1.71 0 0 1-.78-.331z"/>
</svg>
