<svg xmlns="http://www.w3.org/2000/svg" width="16" height="20" viewBox="0 0 16 20">
    <path fill="#C1C7C9" fill-rule="nonzero" d="M13.671 14.296l-3.184-1.592a.877.877 0 0 1-.487-.788v-1.127c.076-.093.157-.2.24-.317a7.629 7.629 0 0 0 .984-1.933c.47-.216.776-.68.776-1.206V6c0-.321-.12-.632-.333-.875V3.352c.018-.183.092-1.275-.698-2.175C10.285.396 9.174 0 7.667 0 6.16 0 5.049.396 4.364 1.177c-.79.9-.716 1.992-.697 2.175v1.773A1.33 1.33 0 0 0 3.333 6v1.333c0 .406.185.784.5 1.037A6.996 6.996 0 0 0 5 10.782v1.103a.88.88 0 0 1-.459.773L1.567 14.28A3.006 3.006 0 0 0 0 16.92V18c0 1.582 5.015 2 7.667 2 2.651 0 7.666-.418 7.666-2v-1.014a2.991 2.991 0 0 0-1.662-2.69z"/>
</svg>
