<svg xmlns="http://www.w3.org/2000/svg" xmlns:xlink="http://www.w3.org/1999/xlink" width="25" height="13" viewBox="0 0 25 13">
    <defs>
        <path id="a" d="M0 0h21v12H0z"/>
    </defs>
    <g fill="none" fill-rule="evenodd" transform="translate(0 1)">
        <mask id="b" fill="#fff">
            <use xlink:href="#a"/>
        </mask>
        <path fill="#373D3F" d="M17.629 10.973c-.53 0-.942-.472-.942-1.026s.433-1.027.942-1.027c.529 0 .942.473.942 1.027 0 .554-.434 1.026-.942 1.026zm-3.29-6.286c-.047 0-.088-.04-.088-.097V2.704c0-.052.037-.096.088-.096h1.495c.03 0 .058.014.072.04l1.163 1.886c.038.064-.003.15-.072.15H14.34v.003zm-6.486 6.286c-.53 0-.942-.472-.942-1.026s.433-1.027.942-1.027c.528 0 .941.473.941 1.027 0 .554-.413 1.026-.941 1.026zM4.348 9.764c0 .432.321.76.696.76h1C6.27 11.385 6.986 12 7.853 12c.866 0 1.583-.636 1.808-1.477h6.16c.224.863.941 1.477 1.808 1.477.866 0 1.583-.636 1.808-1.477h.867c.396 0 .696-.35.696-.759v-.963c0-.394-.283-.721-.62-.763V6.09c0-.74-.547-1.335-1.226-1.335l-.846-.145-1.45-2.38c-.02-.02-.038-.064-.058-.083-.226-.327-.584-.554-1-.554h-2.75v-.83c0-.42-.287-.762-.642-.762H4.99c-.355 0-.642.323-.642.762 0 .713.616.88.616.88H.56c-.294 0-.559.263-.559.61 0 .32.241.609.56.609h5.129c.265.03.479.289.479.583 0 .32-.242.61-.56.61H1.895c-.294 0-.56.263-.56.609 0 .32.242.609.56.609h5.528c.294 0 .559.263.559.61 0 .32-.242.609-.56.609H3.497c-.294 0-.559.263-.559.61 0 .32.242.608.559.608h1.44c-.346.088-.587.579-.587.987v1.068z" mask="url(#b)"/>
    </g>
</svg>
