<svg xmlns="http://www.w3.org/2000/svg" width="16" height="16" viewBox="0 0 16 16">
    <g fill="none" fill-rule="nonzero">
        <path fill="#6BCC3C" stroke="#52A23A" d="M14.99 7.995l-1.198-1.56.268-1.938-1.828-.724-.724-1.828-1.938.268L7.995 1l-1.56 1.197-1.938-.268-.724 1.828-1.828.725.268 1.937L1 7.995l1.197 1.56-.268 1.937 1.828.725.725 1.827 1.937-.268 1.56 1.198 1.56-1.198 1.937.268.725-1.827 1.827-.74-.267-1.938z"/>
        <path fill="#D8D8D8" stroke="#FFF" d="M7.428 10.263L5.096 8.341l.504-.614 1.733 1.418 2.962-3.419.598.52z"/>
    </g>
</svg>
