<svg xmlns="http://www.w3.org/2000/svg" width="19" height="23" viewBox="0 0 19 23">
    <g fill="#FFF" fill-rule="nonzero">
        <path d="M10.255.223l3.101 3.722a.621.621 0 0 1-.476 1.018h-1.861v9.305a.62.62 0 0 1-.62.62H9.157a.62.62 0 0 1-.62-.62V4.963H6.675A.621.621 0 0 1 6.2 3.945L9.302.223a.617.617 0 0 1 .953 0z"/>
        <path d="M19 21.843V7.417c0-.64-.518-1.158-1.157-1.158h-5.787v2.315h4.63v12.111H2.796V8.574h4.63V6.259H1.64C1 6.26.483 6.778.483 7.417v14.426C.483 22.483 1 23 1.64 23h16.203c.639 0 1.157-.517 1.157-1.157z"/>
    </g>
</svg>
