<svg xmlns="http://www.w3.org/2000/svg" width="163" height="46" viewBox="0 0 163 46">
    <defs>
        <linearGradient id="a" x1="49.969%" x2="49.969%" y1="100%" y2="-.003%">
            <stop offset="0%" stop-color="#6DCEF5"/>
            <stop offset="100%" stop-color="#00ADEE"/>
        </linearGradient>
        <linearGradient id="b" x1="50.005%" x2="50.005%" y1="100.033%" y2="0%">
            <stop offset="0%" stop-color="#00ADEE"/>
            <stop offset="100%" stop-color="#6DCEF5"/>
        </linearGradient>
    </defs>
    <g fill="none" fill-rule="nonzero">
        <path fill="#000" d="M61.085 33H45.218v-3.233l9.314-12.7h-8.749V12.91h14.97v3.567l-9.049 12.366h9.381zM77.176 33l-1.065-2.733h-.133a8.39 8.39 0 0 1-2.828 2.43 9.497 9.497 0 0 1-3.825.666c-1.93 0-3.426-.566-4.557-1.666-1.131-1.1-1.664-2.667-1.664-4.697 0-2.137.732-3.7 2.23-4.733 1.496-1.034 3.725-1.57 6.752-1.667l3.493-.1v-.867c0-2.033-1.031-3.066-3.127-3.066-1.597 0-3.493.5-5.655 1.466l-1.82-3.7a16.35 16.35 0 0 1 7.684-1.833c2.695 0 4.757.6 6.188 1.767 1.43 1.166 2.162 2.966 2.162 5.366V33h-3.835zm-1.597-9.333l-2.13.066c-1.596.034-2.76.334-3.559.867a2.739 2.739 0 0 0-1.164 2.4c0 1.53.898 2.333 2.661 2.333a4.256 4.256 0 0 0 3.06-1.1 3.82 3.82 0 0 0 1.132-2.9v-1.666zM103.455 33h-5.489V21.243c0-1.466-.233-2.533-.732-3.266-.498-.734-1.264-1.1-2.295-1.1-1.397 0-2.428.5-3.06 1.533-.632 1.033-.965 2.733-.965 5.1V33h-5.489V12.91h4.192l.732 2.567h.299a5.64 5.64 0 0 1 2.329-2.167 7.386 7.386 0 0 1 3.492-.767c2.994 0 5.057 1 6.121 2.967h.5a5.25 5.25 0 0 1 2.394-2.167 8.1 8.1 0 0 1 3.56-.766c2.262 0 3.992.6 5.156 1.766 1.164 1.167 1.763 3.034 1.763 5.634V33h-5.489V21.243c0-1.466-.233-2.533-.732-3.266-.499-.734-1.264-1.1-2.295-1.1-1.33 0-2.329.466-2.994 1.433-.665.967-.998 2.467-.998 4.567V33zM120.198 7.71c0-1.8.997-2.667 2.993-2.667s2.994.9 2.994 2.667a2.646 2.646 0 0 1-.732 2c-.499.467-1.23.7-2.228.7-2.03 0-3.027-.9-3.027-2.7zM125.919 33h-5.499V12.91h5.49l.01 20.09zM138.793 33.377c-6.254 0-9.381-3.434-9.381-10.3 0-3.434.865-6.034 2.561-7.834 1.697-1.8 4.125-2.7 7.319-2.7 2.161-.029 4.3.439 6.254 1.367l-1.63 4.233a44.264 44.264 0 0 0-2.395-.866 7.378 7.378 0 0 0-2.23-.334c-2.86 0-4.257 2.034-4.257 6.067 0 3.933 1.43 5.9 4.258 5.9a9.14 9.14 0 0 0 2.927-.433c.96-.308 1.868-.758 2.695-1.334v4.7a8.593 8.593 0 0 1-2.695 1.167c-1.12.278-2.273.4-3.426.367zM162.777 27.043c0 2.067-.732 3.634-2.162 4.7-1.43 1.067-3.56 1.634-6.42 1.634a19.803 19.803 0 0 1-3.726-.3 15.66 15.66 0 0 1-2.894-.867v-4.543c1.107.495 2.253.896 3.426 1.2a13.44 13.44 0 0 0 3.36.5c1.996 0 2.994-.567 2.994-1.734a1.515 1.515 0 0 0-.4-1.066 7.165 7.165 0 0 0-1.363-.934c-.632-.333-1.497-.733-2.595-1.2-1.53-.633-2.694-1.233-3.393-1.8a5.664 5.664 0 0 1-1.597-1.9 6.208 6.208 0 0 1-.499-2.633 4.77 4.77 0 0 1 2.063-4.137c1.364-.966 3.36-1.466 5.888-1.466 2.44.005 4.848.551 7.052 1.6l-1.663 3.966A25.206 25.206 0 0 0 158.01 17a9.038 9.038 0 0 0-2.661-.4c-1.63 0-2.428.433-2.428 1.3.017.527.307 1.007.765 1.267a22 22 0 0 0 3.426 1.6 17.052 17.052 0 0 1 3.46 1.766 5.474 5.474 0 0 1 1.63 1.9c.408.808.606 1.706.575 2.61z"/>
        <path fill="#2E94CE" d="M0 36.807l7.977-4.617v-9.23L0 18.343"/>
        <path fill="url(#a)" d="M16.343.103a.784.784 0 0 0-.775 0L0 9.11v9.223l7.984 4.627 6.81-3.943a.777.777 0 0 0 0-1.334l-5.656-3.27a.78.78 0 0 1 0-1.333l6.43-3.747c.24-.14.536-.14.775 0l7.608 4.394 7.984-4.617L16.343.103z"/>
        <path fill="url(#b)" d="M31.911 36.807v-9.234l-7.96-4.613-6.833 3.94a.78.78 0 0 0 0 1.333l5.655 3.27a.78.78 0 0 1 0 1.334l-6.43 3.743a.767.767 0 0 1-.775 0l-7.584-4.39L0 36.807l15.568 9c.24.136.535.136.775 0l15.568-9z"/>
        <path fill="#2E94CE" d="M31.915 27.573V9.11l-7.98 4.617v9.233z"/>
        <path fill="#00ADEE" d="M31.915 27.573V9.11l-7.98 4.617v9.233zM0 18.343v18.464l7.977-4.617v-9.23z"/>
    </g>
</svg>
