<svg xmlns="http://www.w3.org/2000/svg" width="32" height="38" viewBox="0 0 32 38">
    <g fill="#000" fill-rule="nonzero">
        <path d="M7 21.184C1.312 15.844 1.312 7.156 7 1.816L5.066 0c-6.755 6.341-6.755 16.659 0 23L7 21.184zM25 21.184L26.934 23c6.755-6.341 6.755-16.659 0-23L25 1.816c5.688 5.34 5.688 14.028 0 19.368z"/>
        <path d="M9.116 18L11 16.25c-1.507-1.4-2.336-3.264-2.336-5.25 0-1.986.83-3.85 2.336-5.25L9.116 4C7.106 5.867 6 8.353 6 11c0 2.647 1.107 5.133 3.116 7zM22.884 18C24.894 16.133 26 13.647 26 11c0-2.647-1.107-5.133-3.116-7L21 5.75c1.507 1.4 2.336 3.264 2.336 5.25 0 1.986-.83 3.85-2.336 5.25L22.884 18z"/>
        <path d="M18.12 15.018c1.563-.622 2.667-2.115 2.667-3.854C20.787 8.868 18.864 7 16.5 7c-2.363 0-4.286 1.868-4.286 4.164 0 1.74 1.104 3.232 2.666 3.854L8 38h17l-6.88-22.982zm1.688 14.586h-6.616L16.5 18.552l3.308 11.052zM16.5 9.498c.946 0 1.715.748 1.715 1.666 0 .919-.77 1.666-1.715 1.666-.945 0-1.714-.747-1.714-1.666 0-.918.769-1.666 1.714-1.666zm-4.056 22.605h8.112L22.322 38H10.678l1.766-5.897z"/>
    </g>
</svg>
