<svg width="48" height="48" viewBox="0 0 48 48" xmlns="http://www.w3.org/2000/svg">
    <g fill="#555F60" fill-rule="evenodd">
        <path fill="none" d="M0 0h48v48H0z"/>
        <path d="M31.128 25.901 43.12 37.894l-4.242 4.242-11.993-11.992 4.243-4.243zM34.32 5.8c1.055 0 2.043.264 2.935.688l.265.132-5.4 5.4L35.1 15l5.4-5.4c.5.96.82 2.04.82 3.2 0 3.86-3.14 7-7 7a6.721 6.721 0 0 1-2.008-.315L32 19.38 9.24 42.12 5 37.88l14.82-14.82.034-.035-3.616-3.645c-.714.26-1.487.42-2.3.42-3.826 0-6.938-3.14-6.938-7 0-1.16.317-2.24.813-3.2l5.352 5.4 2.954-2.98-5.352-5.4c.951-.5 2.022-.82 3.171-.82 3.826 0 6.939 3.14 6.939 7 0 .82-.159 1.6-.417 2.32l3.623 3.655 3.657-3.655a6.92 6.92 0 0 1-.41-1.971l-.01-.349c0-3.86 3.14-7 7-7z"/>
    </g>
</svg>
