<svg xmlns="http://www.w3.org/2000/svg" width="24" height="24" viewBox="0 0 24 24">
    <path fill="#555F60" fill-rule="evenodd" d="M2 9V7c0-1.1.9-2 2-2h3.17L9 3h6l1.83 2H20c1.1 0 2 .9 2 2v12c0 1.1-.9 2-2 2H4c-1.1 0-2-.9-2-2V9zm6.96 3.771a3.147 3.147 0 0 1 2.97-3.138l-.658.658a.786.786 0 0 0 1.111 1.11l1.847-1.846a.786.786 0 0 0 0-1.11l-1.847-1.847a.786.786 0 1 0-1.111 1.11l.37.371a4.721 4.721 0 0 0-4.254 4.692c0 .605.116 1.195.346 1.753a.786.786 0 1 0 1.453-.598 2.978 2.978 0 0 1-.228-1.155zm6.458-2.336a.786.786 0 0 0-.423 1.028c.164.393.25.846.25 1.308a3.147 3.147 0 0 1-3.143 3.143l-.03.002.586-.585a.786.786 0 0 0-1.111-1.112L9.7 16.066a.786.786 0 0 0 0 1.111l1.847 1.847a.783.783 0 0 0 1.111 0 .786.786 0 0 0 0-1.112l-.428-.428a4.72 4.72 0 0 0 4.587-4.713c0-.668-.128-1.33-.371-1.912a.786.786 0 0 0-1.028-.424z"/>
</svg>
