<svg width="24" height="24" viewBox="0 0 24 24" xmlns="http://www.w3.org/2000/svg">
    <path fill="#555F60" fill-rule="evenodd" d="M3.06066 1.93934C2.47487 1.35355 1.52513 1.35355 0.93934 1.93934C0.353553 2.52513 0.353553 3.47487 0.93934 4.06066L2.52801 5.64933C2.20047 6.00584 1.99988 6.48058 1.99988 6.99989V8.99989V18.9999C1.99988 20.0999 2.89988 20.9999 3.99988 20.9999H17.8786L19.9393 23.0607C20.5251 23.6464 21.4749 23.6464 22.0607 23.0607C22.6464 22.4749 22.6464 21.5251 22.0607 20.9393L3.06066 1.93934ZM14.3093 17.4306L12.9392 16.0605C12.6424 16.1512 12.3271 16.2 12.0002 16.2C10.2302 16.2 8.80018 14.77 8.80018 13C8.80018 12.6731 8.84896 12.3578 8.93964 12.061L7.56617 10.6875C7.20447 11.3791 6.99988 12.1658 6.99988 12.9999C6.99988 14.3799 7.55988 15.6299 8.46488 16.5349C8.98888 17.0589 9.63188 17.4629 10.3459 17.7139C10.8639 17.8959 11.4189 17.9999 11.9999 17.9999C12.5809 17.9999 13.1359 17.8959 13.6549 17.7139C13.8806 17.6344 14.0992 17.5397 14.3093 17.4306ZM16.9999 12.9999C16.9999 13.1228 16.9954 13.2447 16.9867 13.3654L21.9999 18.3786V8.99989V6.99989C21.9999 5.89989 21.0999 4.99989 19.9999 4.99989H16.8299L14.9999 2.99989H12.4859H11.5139H8.99988L7.86334 4.24202L11.6344 8.01307C11.7551 8.00434 11.877 7.99989 11.9999 7.99989C14.7599 7.99989 16.9999 10.2399 16.9999 12.9999Z"/>
</svg>
