<svg xmlns="http://www.w3.org/2000/svg" width="24" height="24" viewBox="0 0 24 24">
    <path fill="#555F60" fill-rule="evenodd" d="M12 9.8c-1.77 0-3.2 1.43-3.2 3.2 0 1.77 1.43 3.2 3.2 3.2 1.77 0 3.2-1.43 3.2-3.2 0-1.77-1.43-3.2-3.2-3.2m3.535 6.735a5.01 5.01 0 0 1-1.88 1.179A4.986 4.986 0 0 1 12 18a4.976 4.976 0 0 1-1.654-.286A4.984 4.984 0 0 1 7 13c0-2.76 2.24-5 5-5s5 2.24 5 5c0 1.38-.56 2.63-1.465 3.535M20 5h-3.17L15 3H9L7.17 5H4c-1.1 0-2 .9-2 2v12c0 1.1.9 2 2 2h16c1.1 0 2-.9 2-2V7c0-1.1-.9-2-2-2"/>
</svg>
