<svg width="10" height="10" viewBox="0 0 10 10" fill="none" xmlns="http://www.w3.org/2000/svg">
    <path fill-rule="evenodd" clip-rule="evenodd"
          d="M9.21678 8.95392L9.04878 9.12192C8.64078 9.52992 7.98478 9.52992 7.58478 9.12192L5.00078 6.53792L2.41678 9.12192C2.00878 9.52992 1.35278 9.52992 0.952781 9.12192L0.784781 8.95392C0.472781 8.64192 0.472781 8.13792 0.784781 7.82592L3.53678 5.07392L3.52078 5.05792L3.53678 5.04192L0.952781 2.45792C0.544781 2.04992 0.544781 1.39392 0.952781 0.993919L1.12078 0.825919C1.43278 0.513919 1.93678 0.513919 2.24878 0.825919L5.00078 3.57792L7.75278 0.825919C8.06478 0.513919 8.56878 0.513919 8.88078 0.825919L9.04878 0.993919C9.45678 1.40192 9.45678 2.05792 9.04878 2.45792L6.46478 5.04192L6.48078 5.05792L6.46478 5.07392L9.21678 7.82592C9.52878 8.13792 9.52878 8.64192 9.21678 8.95392Z"
          fill="#555F60" />
</svg>
