<svg xmlns="http://www.w3.org/2000/svg" width="24" height="24" viewBox="0 0 24 24">
    <g fill="#555F60" fill-rule="evenodd">
        <path fill="none" d="M0 0h24v24H0z"/>
        <path d="M12 2C6.455 2 2 6.455 2 12s4.455 10 10 10 10-4.455 10-10S17.545 2 12 2zm1.455 10.182l3.409 3.409c.09.09.136.227.136.318s-.045.227-.136.318l-.637.637a.491.491 0 0 1-.318.136.413.413 0 0 1-.318-.136l-3.41-3.41a.22.22 0 0 0-.317 0l-3.41 3.41a.491.491 0 0 1-.318.136.413.413 0 0 1-.318-.136l-.636-.637a.491.491 0 0 1-.137-.318c0-.09.046-.227.137-.318l3.409-3.41a.22.22 0 0 0 0-.317l-3.41-3.41a.491.491 0 0 1-.136-.318c0-.09.046-.227.137-.318l.636-.636a.491.491 0 0 1 .318-.137c.091 0 .228.046.319.137l3.409 3.409c.09.09.227.09.318 0l3.409-3.41a.491.491 0 0 1 .318-.136c.136 0 .227.046.318.137l.637.636c.09.091.136.227.136.318s-.045.228-.136.319l-3.41 3.409c-.09.045-.09.227 0 .318z"/>
    </g>
</svg>
