<svg width="18" height="13" viewBox="0 0 18 13" fill="none" xmlns="http://www.w3.org/2000/svg">
    <path fill-rule="evenodd" clip-rule="evenodd"
          d="M16.7683 3.85316C16.956 3.65284 17.1024 3.4175 17.1992 3.16059C17.296 2.90368 17.3412 2.63022 17.3322 2.35584C17.3233 2.08146 17.2604 1.81152 17.1472 1.56144C17.0339 1.31137 16.8725 1.08604 16.6722 0.898337C16.4719 0.710632 16.2365 0.564221 15.9796 0.467467C15.7227 0.370712 15.4493 0.325508 15.1749 0.334434C14.9005 0.34336 14.6306 0.406243 14.3805 0.519491C14.1304 0.632739 13.9051 0.794134 13.7174 0.994462L7.27485 7.86956L4.09224 5.0422C3.67526 4.69556 3.13986 4.52458 2.59915 4.56537C2.05844 4.60617 1.55476 4.85554 1.19451 5.26083C0.83426 5.66611 0.645655 6.19555 0.668535 6.73732C0.691415 7.27908 0.92399 7.79074 1.31713 8.1642L6.01894 12.3436C6.42578 12.705 6.95754 12.8934 7.50114 12.8688C8.04475 12.8442 8.55733 12.6086 8.92989 12.2119L16.7683 3.85316Z"
          fill="#555F60"/>
</svg>
