<?xml version="1.0" encoding="UTF-8"?>
<svg width="512" height="512" viewBox="0 0 512 512" version="1.1" xmlns="http://www.w3.org/2000/svg"
     xmlns:xlink="http://www.w3.org/1999/xlink">
    <g id="employee" stroke="none" stroke-width="1" fill="none" fill-rule="evenodd">
        <g id="Group" transform="translate(55.000000, 0.000000)" fill="#555F60" fill-rule="nonzero">
            <path d="M201.905539,246.026627 C257.821825,246.026627 303.17363,190.940408 303.17363,123.02589 C303.17363,55.0862196 288.282743,-1.42108547e-13 201.905539,-1.42108547e-13 C115.503181,-1.42108547e-13 100.612294,55.0862196 100.612294,123.000737 C100.612294,190.965561 145.964099,246.026627 201.905539,246.026627 L201.905539,246.026627 Z"
                  id="Path"
            />
            <path d="M402.228211,433.973766 C400.266236,309.463817 383.991906,273.997347 259.557418,251.535249 C259.557418,251.535249 242.050564,273.846426 201.226394,273.846426 C160.402223,273.846426 142.870216,251.535249 142.870216,251.535249 C19.8443252,273.745812 2.58900713,308.684058 0.325189882,429.924048 C0.149115208,439.834537 0.073654633,440.337607 0.0233475831,439.205699 L0.0233475831,452.285532 C0.0233475831,452.285532 29.6542,512 201.251547,512 C372.848894,512 402.479747,452.285532 402.479747,452.285532 L402.479747,442.601425 C402.454593,443.305723 402.379132,441.92228 402.253365,433.973766 L402.228211,433.973766 Z"
                  id="Path"
            />
        </g>
    </g>
</svg>