<svg xmlns="http://www.w3.org/2000/svg" width="24" height="24" viewBox="0 0 24 24">
    <path fill="#555F60" fill-rule="evenodd" d="M5.962 14.446L.652 9.3a.5.5 0 0 1 .277-.854l7.34-1.06 3.283-6.61a.5.5 0 0 1 .896 0l3.283 6.61 7.34 1.06a.5.5 0 0 1 .277.854l-5.31 5.145 1.253 7.262a.5.5 0 0 1-.724.528L12 18.805l-6.567 3.431a.5.5 0 0 1-.724-.528l1.253-7.262zM2.08 9.29L6.68 13.75a.94.94 0 0 1 .273.835L5.866 20.88l5.695-2.975a.945.945 0 0 1 .878 0l5.695 2.975-1.087-6.298a.94.94 0 0 1 .272-.834l4.602-4.458-6.362-.918a.945.945 0 0 1-.71-.514L12 2.124 9.151 7.86a.944.944 0 0 1-.71.513l-6.362.918z"/>
</svg>
