<svg width="24" height="24" viewBox="0 0 24 24" fill="none" xmlns="http://www.w3.org/2000/svg">
<path fill-rule="evenodd" clip-rule="evenodd" d="M20 11.917C19.6748 11.9716 19.3407 12 19 12C16.027 12 13.559 9.83772 13.083 7H2C1.45067 6.99934 0.980002 7.195 0.588002 7.587C0.196002 7.979 1.69779e-06 8.45 1.69779e-06 9V21C-0.000664969 21.5493 0.195002 22.02 0.587002 22.412C0.979002 22.804 1.45 23 2 23H18C18.5493 23.0007 19.02 22.805 19.412 22.413C19.804 22.021 20 21.55 20 21V11.917ZM13.2 15.85L9.05 18.5C8.71667 18.7333 8.375 18.75 8.025 18.55C7.675 18.35 7.5 18.0583 7.5 17.675V12.325C7.5 11.9417 7.675 11.65 8.025 11.45C8.375 11.25 8.71667 11.2667 9.05 11.5L13.2 14.15C13.5167 14.35 13.675 14.6333 13.675 15C13.675 15.3667 13.5167 15.65 13.2 15.85Z" fill="#00AEEF"/>
<path d="M18.975 9C19.15 9 19.298 8.9395 19.419 8.8185C19.54 8.6975 19.6003 8.54967 19.6 8.375C19.6 8.2 19.5397 8.052 19.419 7.931C19.2983 7.81 19.1503 7.74967 18.975 7.75C18.8 7.75 18.6522 7.8105 18.5315 7.9315C18.4108 8.0525 18.3503 8.20033 18.35 8.375C18.35 8.55 18.4105 8.698 18.5315 8.819C18.6525 8.94 18.8003 9.00033 18.975 9ZM18.525 7.075H19.45C19.45 6.8 19.4813 6.58333 19.544 6.425C19.6067 6.26667 19.7837 6.05 20.075 5.775C20.2917 5.55833 20.4625 5.352 20.5875 5.156C20.7125 4.96 20.775 4.72467 20.775 4.45C20.775 3.98333 20.6042 3.625 20.2625 3.375C19.9208 3.125 19.5167 3 19.05 3C18.575 3 18.1895 3.125 17.8935 3.375C17.5975 3.625 17.3913 3.925 17.275 4.275L18.1 4.6C18.1417 4.45 18.2355 4.2875 18.3815 4.1125C18.5275 3.9375 18.7503 3.85 19.05 3.85C19.3167 3.85 19.5167 3.923 19.65 4.069C19.7833 4.215 19.85 4.37533 19.85 4.55C19.85 4.71667 19.8 4.873 19.7 5.019C19.6 5.165 19.475 5.30033 19.325 5.425C18.9583 5.75 18.7333 5.99583 18.65 6.1625C18.5667 6.32917 18.525 6.63333 18.525 7.075ZM19 11C18.3083 11 17.6583 10.8687 17.05 10.606C16.4417 10.3433 15.9125 9.98717 15.4625 9.5375C15.0125 9.0875 14.6563 8.55833 14.394 7.95C14.1317 7.34167 14.0003 6.69167 14 6C14 5.30833 14.1313 4.65833 14.394 4.05C14.6567 3.44167 15.0128 2.9125 15.4625 2.4625C15.9125 2.0125 16.4417 1.65633 17.05 1.394C17.6583 1.13167 18.3083 1.00033 19 1C19.6917 1 20.3417 1.13133 20.95 1.394C21.5583 1.65667 22.0875 2.01283 22.5375 2.4625C22.9875 2.9125 23.3438 3.44167 23.6065 4.05C23.8692 4.65833 24.0003 5.30833 24 6C24 6.69167 23.8687 7.34167 23.606 7.95C23.3433 8.55833 22.9872 9.0875 22.5375 9.5375C22.0875 9.9875 21.5583 10.3438 20.95 10.6065C20.3417 10.8692 19.6917 11.0003 19 11Z" fill="#00AEEF"/>
</svg>
