<svg width="24" height="24" viewBox="0 0 24 24" fill="none" xmlns="http://www.w3.org/2000/svg">
    <path
        d="M10.2 2.39999C9.8276 2.3998 9.46431 2.51511 9.1602 2.73003C8.85609 2.94495 8.62612 3.2489 8.50199 3.59999H6.59999C6.1226 3.59999 5.66476 3.78964 5.3272 4.1272C4.98963 4.46477 4.79999 4.9226 4.79999 5.39999V19.8C4.79999 20.2774 4.98963 20.7352 5.3272 21.0728C5.66476 21.4103 6.1226 21.6 6.59999 21.6H9.60479C9.61375 21.4595 9.63544 21.3201 9.66959 21.1836L10.1196 19.386C10.2876 18.7115 10.636 18.0955 11.1276 17.604L16.9236 11.808C17.5302 11.2007 18.3424 10.8427 19.2 10.8048V5.39999C19.2 4.9226 19.0103 4.46477 18.6728 4.1272C18.3352 3.78964 17.8774 3.59999 17.4 3.59999H15.498C15.3739 3.2489 15.1439 2.94495 14.8398 2.73003C14.5357 2.51511 14.1724 2.3998 13.8 2.39999H10.2ZM9.59999 4.19999C9.59999 4.04086 9.6632 3.88825 9.77572 3.77573C9.88824 3.66321 10.0409 3.59999 10.2 3.59999H13.8C13.9591 3.59999 14.1117 3.66321 14.2243 3.77573C14.3368 3.88825 14.4 4.04086 14.4 4.19999C14.4 4.35912 14.3368 4.51174 14.2243 4.62426C14.1117 4.73678 13.9591 4.79999 13.8 4.79999H10.2C10.0409 4.79999 9.88824 4.73678 9.77572 4.62426C9.6632 4.51174 9.59999 4.35912 9.59999 4.19999ZM11.976 18.4524L17.772 12.6564C18.193 12.2357 18.764 11.9994 19.3592 11.9996C19.9545 11.9999 20.5252 12.2365 20.946 12.6576C21.3667 13.0787 21.603 13.6496 21.6027 14.2448C21.6025 14.8401 21.3658 15.4109 20.9448 15.8316L15.1488 21.6264C14.8111 21.9642 14.3881 22.2039 13.9248 22.32L12.1272 22.7688C11.9484 22.8133 11.7612 22.8109 11.5837 22.7617C11.4062 22.7125 11.2444 22.6182 11.1141 22.488C10.9838 22.3578 10.8894 22.1961 10.84 22.0187C10.7906 21.8412 10.788 21.654 10.8324 21.4752L11.2824 19.6776C11.3975 19.2139 11.6374 18.7906 11.976 18.4536V18.4524Z"
        fill="#555F60"
    />
</svg>
