<svg xmlns="http://www.w3.org/2000/svg" width="24" height="24" viewBox="0 0 24 24">
    <g fill="none" fill-rule="evenodd">
        <g fill="#555F60" fill-rule="nonzero">
            <g>
                <g>
                    <path d="M14.136 19.588v.015c0 1.308-1.06 2.368-2.368 2.368-1.308 0-2.368-1.06-2.368-2.368v-.015h4.736zM11.768 2c.588 0 1.065.477 1.065 1.065v1.202c2.488.495 4.364 2.69 4.364 5.325v3.905l2.131 3.13c.225.33.248.757.062 1.11-.187.353-.553.573-.952.573H5.098c-.399 0-.765-.22-.952-.573-.186-.353-.162-.78.062-1.11l2.131-3.13V9.592c0-2.634 1.876-4.83 4.365-5.325V3.065c0-.588.476-1.065 1.064-1.065z"
                          transform="translate(-23 -304) translate(0 296) translate(23 8)"/>
                </g>
            </g>
        </g>
    </g>
</svg>
