<svg xmlns="http://www.w3.org/2000/svg" width="24" height="24" viewBox="0 0 24 24">
    <path fill="#555F60" fill-rule="evenodd" d="M14.492 5.285c-.139.063-.296-.036-.31-.193l-.045-.72c0-.751.967-1.359 1.98-1.359.985 0 1.808.58 1.853 1.3l.054.433a.22.22 0 0 1-.27.243 4.816 4.816 0 0 0-1.183-.144c-.715 0-1.44.157-2.079.44zm8.432 12.377c.018.135.031.27.036.41 0 2.006-2.106 3.635-4.688 3.635-2.587 0-4.688-1.629-4.688-3.635v-1.66a3.873 3.873 0 0 1-1.602.332c-.59 0-1.143-.121-1.606-.337v1.665c0 2.006-2.101 3.635-4.688 3.635C3.1 21.707 1 20.078 1 18.072c0-.14.013-.275.031-.41l.023-.13c0-.01.004-.018.004-.027l.833-4.23c.108-.976.819-1.83 1.853-2.352L4.14 7.85c0-1.305 1.476-2.371 3.244-2.371 1.764 0 3.45 1.062 3.45 2.366 0 .068-.004.13-.013.194l-.022.337c.355-.13.756-.202 1.183-.202.423 0 .823.072 1.174.198l-.022-.333a1.398 1.398 0 0 1-.014-.194c0-1.309 1.683-2.366 3.451-2.366s3.244 1.066 3.244 2.37l.396 3.074c1.034.526 1.745 1.376 1.853 2.353l.833 4.229c0 .009.004.018.004.027l.023.13zM5.688 20.398c1.831 0 3.379-1.067 3.379-2.326 0-1.26-1.548-2.326-3.38-2.326-1.83 0-3.378 1.061-3.378 2.326 0 1.26 1.548 2.326 3.379 2.326zm12.58 0c1.83 0 3.378-1.067 3.378-2.326 0-1.26-1.548-2.326-3.379-2.326s-3.379 1.061-3.379 2.326c0 1.26 1.548 2.326 3.38 2.326zm-6.286-4.805c.77 0 1.395-.437 1.395-.972 0-.536-.626-.972-1.395-.972-.77 0-1.395.436-1.395.972 0 .535.626.972 1.395.972zM6.196 4.989a.22.22 0 0 1-.274-.239l.054-.432c.05-.72.868-1.3 1.853-1.3 1.013 0 1.98.607 1.98 1.359l-.045.72a.218.218 0 0 1-.306.188 5.172 5.172 0 0 0-2.078-.44c-.41 0-.81.05-1.184.144z"/>
</svg>
