<svg xmlns="http://www.w3.org/2000/svg" width="24" height="24" viewBox="0 0 24 24">
    <path fill="#555F60" fill-rule="evenodd" d="M17.118 15.27c.79.785 1.58 1.572 2.367 2.362.658.662.654 1.473-.009 2.143-.446.451-.922.882-1.344 1.354-.617.69-1.387.914-2.272.864-1.287-.07-2.47-.496-3.612-1.05a19.692 19.692 0 0 1-6.522-5.103c-1.345-1.597-2.454-3.339-3.182-5.3-.356-.948-.608-1.92-.53-2.95.05-.634.286-1.176.754-1.619.504-.48.98-.98 1.477-1.469.645-.637 1.456-.637 2.106-.004.401.393.794.795 1.192 1.192.384.389.77.77 1.154 1.159.679.682.679 1.477.004 2.155-.484.489-.964.977-1.456 1.453-.129.128-.14.232-.075.389.327.778.795 1.469 1.32 2.114 1.06 1.3 2.255 2.454 3.683 3.352.306.19.646.331.964.505.162.09.273.062.406-.075.484-.496.976-.984 1.469-1.473.645-.641 1.456-.641 2.106 0zM16.476 12a5.41 5.41 0 0 0-1.47-2.903A5.215 5.215 0 0 0 12 7.565L12.215 6a6.721 6.721 0 0 1 3.881 1.979A7.011 7.011 0 0 1 18 11.734L16.476 12zm2.3-6.642a11.869 11.869 0 0 1 3.205 6.339l-1.544.27a10.208 10.208 0 0 0-2.766-5.472c-1.54-1.575-3.49-2.575-5.64-2.884l.218-1.592c2.49.356 4.745 1.51 6.527 3.339z"/>
</svg>
