<svg xmlns="http://www.w3.org/2000/svg" width="24" height="24" viewBox="0 0 24 24">
    <path fill="#FFF" fill-rule="nonzero" d="M.095.095h8.929v8.929H.095V.095m23.81 0v8.929h-8.929V.095h8.929m-8.929 16.37h2.976v-2.977h-2.976v-2.976h2.976v2.976h2.977v-2.976h2.976v2.976h-2.976v2.976h2.976v4.465h-2.976v2.976h-2.977v-2.976h-4.464v2.976h-2.976v-5.953h4.464v-1.488m2.976 0v4.465h2.977v-4.465h-2.977M.095 23.904v-8.928h8.929v8.929H.095M3.071 3.07v2.977h2.977V3.07H3.07m14.881 0v2.977h2.977V3.07h-2.977M3.072 17.952v2.977h2.976v-2.977H3.07m-2.976-7.44h2.976v2.976H.095v-2.976m7.44 0h5.953v5.952h-2.976v-2.976H7.536v-2.976m2.976-7.44h2.976v5.952h-2.976V3.07"/>
</svg>
