<svg xmlns="http://www.w3.org/2000/svg" width="24" height="25" viewBox="0 0 24 25">
    <path fill="#00AEEF" fill-rule="nonzero" d="M2 4.513l1.28-1.27L20 19.962l-1.27 1.28-4.83-4.83-2.61 2.61a5.003 5.003 0 0 1-7.07 0 5.003 5.003 0 0 1 0-7.07l1.49-1.49c-.01.82.12 1.64.4 2.43l-.47.47a2.982 2.982 0 0 0 0 4.24 2.982 2.982 0 0 0 4.24 0l2.62-2.6-1.62-1.61c-.01.24-.11.49-.29.68-.39.39-1.03.39-1.42 0a4.973 4.973 0 0 1-1.45-3.83L2 4.512m10.71-1.05a5.003 5.003 0 0 1 7.07 0 5.003 5.003 0 0 1 0 7.07l-1.49 1.49c.01-.82-.12-1.64-.4-2.42l.47-.48a2.982 2.982 0 0 0 0-4.24 2.982 2.982 0 0 0-4.24 0l-3.33 3.33-1.41-1.42 3.33-3.33m.7 4.95c.39-.39 1.03-.39 1.42 0a4.999 4.999 0 0 1 1.23 5.06l-1.78-1.77c-.05-.68-.34-1.35-.87-1.87a.973.973 0 0 1 0-1.42z"/>
</svg>
