<svg width="20" height="20" viewBox="0 0 20 20" fill="none" xmlns="http://www.w3.org/2000/svg">
    <path fill-rule="evenodd" clip-rule="evenodd"
          d="M2.92924 2.92924C6.83489 -0.976412 13.165 -0.976412 17.0707 2.92924C20.9764 6.83489 20.9764 13.165 17.0707 17.0707C13.165 20.9764 6.83489 20.9764 2.92924 17.0707C-0.976412 13.165 -0.976412 6.83489 2.92924 2.92924ZM13.2777 5.99999C13.0016 5.99999 12.7777 5.77613 12.7777 5.49999C12.7777 5.22385 12.5539 4.99999 12.2777 4.99999H12.1666C11.8905 4.99999 11.6666 5.22385 11.6666 5.49999C11.6666 5.77613 11.4427 5.99999 11.1666 5.99999H8.83332C8.55718 5.99999 8.33332 5.77613 8.33332 5.49999C8.33332 5.22385 8.10947 4.99999 7.83332 4.99999H7.72221C7.44607 4.99999 7.22221 5.22385 7.22221 5.49999C7.22221 5.77613 6.99835 5.99999 6.72221 5.99999H6.1111C5.49832 5.99999 4.99999 6.44849 4.99999 6.99999V13.9999C4.99999 14.5514 5.49832 14.9999 6.1111 14.9999H13.8888C14.5016 14.9999 14.9999 14.5514 14.9999 13.9999V6.99999C14.9999 6.44849 14.5016 5.99999 13.8888 5.99999H13.2777Z"
          fill="#555F60"/>
</svg>
