<svg xmlns="http://www.w3.org/2000/svg" width="24" height="24" viewBox="0 0 24 24">
    <path fill="#555F60" fill-rule="evenodd" d="M4.512 18.028c.168.216.252.468.252.732 0 .3-.12.612-.348.84a1.209 1.209 0 0 1-1.788-.096A11.934 11.934 0 0 1 0 12.016c0-2.748.924-5.292 2.496-7.308l1.716 1.716C3.06 7.984 2.4 9.928 2.4 12.016c0 2.28.792 4.368 2.112 6.012zm18.204 3.348l-1.344 1.356-8.316-8.315a.863.863 0 0 1-.24.107c-.012.012-.036.012-.06.012a1.569 1.569 0 0 1-.348.084 2.243 2.243 0 0 1-.408.037 2.649 2.649 0 0 1-2.64-2.64c0-.145.012-.277.036-.408.012-.121.048-.241.072-.361.036-.095.072-.204.12-.3L1.284 2.644 2.64 1.3l4.836 4.836 3.468 3.468a1.4 1.4 0 0 1 .312-.12c.108-.036.228-.06.348-.071.132-.025.264-.037.396-.037a2.64 2.64 0 0 1 2.64 2.64c0 .132-.012.264-.036.397-.012.119-.036.24-.072.348-.012.023-.012.048-.024.07a1.39 1.39 0 0 1-.096.24l1.596 1.597c.012-.011.012-.024.024-.036.48-.756.768-1.656.768-2.615 0-.973-.288-1.873-.768-2.617-.324-.492-.288-1.128.12-1.535l.012-.013c.516-.516 1.392-.468 1.8.132a7.18 7.18 0 0 1 1.236 4.033 7.1 7.1 0 0 1-1.488 4.355L19.44 18.1c.012-.024.036-.047.048-.072a9.52 9.52 0 0 0 2.112-6.011c0-2.293-.78-4.381-2.112-6.013a1.178 1.178 0 0 1-.252-.732 1.2 1.2 0 0 1 2.136-.744A11.937 11.937 0 0 1 24 12.017c0 2.963-1.08 5.688-2.868 7.775l1.584 1.584zM7.968 14.632c.324.492.288 1.128-.12 1.536l-.012.012c-.504.504-1.392.468-1.8-.132A7.176 7.176 0 0 1 4.8 12.016a7.02 7.02 0 0 1 1.14-3.864l1.752 1.752a4.757 4.757 0 0 0-.492 2.112c0 .96.288 1.86.768 2.616z"/>
</svg>
