<svg xmlns="http://www.w3.org/2000/svg" width="24" height="24" viewBox="0 0 24 24">
    <path fill="#555F60" fill-rule="evenodd" d="M3.516 3.5A11.879 11.879 0 0 0 0 11.944c0 3.297 1.344 6.283 3.516 8.445l1.692-1.684a9.459 9.459 0 0 1-2.808-6.76 9.48 9.48 0 0 1 2.808-6.76L3.516 3.5zm16.968 0l-1.692 1.684a9.48 9.48 0 0 1 2.808 6.76 9.459 9.459 0 0 1-2.808 6.76l1.692 1.685A11.879 11.879 0 0 0 24 11.944c0-3.296-1.344-6.282-3.516-8.444zM6.912 6.88a7.125 7.125 0 0 0 0 10.129l1.692-1.684a4.754 4.754 0 0 1-1.404-3.38c0-1.326.54-2.52 1.404-3.38L6.912 6.88zm10.176 0l-1.692 1.684a4.754 4.754 0 0 1 1.404 3.38c0 1.326-.54 2.52-1.404 3.38l1.692 1.685a7.125 7.125 0 0 0 0-10.129zM12 9.556c-1.325 0-2.4 1.07-2.4 2.388a2.394 2.394 0 0 0 2.4 2.39c1.325 0 2.4-1.07 2.4-2.39A2.394 2.394 0 0 0 12 9.556z"/>
</svg>
