<svg xmlns="http://www.w3.org/2000/svg" width="24" height="24" viewBox="0 0 24 24">
    <path fill="#555F60" fill-rule="evenodd" d="M19.07 4.93c3.906 3.905 3.906 10.235 0 14.14-3.905 3.906-10.235 3.906-14.14 0-3.906-3.905-3.906-10.235 0-14.14 3.905-3.906 10.235-3.906 14.14 0zM17.5 10.5c-.831 0-1.5.669-1.5 1.5s.669 1.5 1.5 1.5S19 12.831 19 12s-.669-1.5-1.5-1.5zm-5.5 0c-.831 0-1.5.669-1.5 1.5s.669 1.5 1.5 1.5 1.5-.669 1.5-1.5-.669-1.5-1.5-1.5zm-5.5 0c-.831 0-1.5.669-1.5 1.5s.669 1.5 1.5 1.5S8 12.831 8 12s-.669-1.5-1.5-1.5z"/>
</svg>
