<svg xmlns="http://www.w3.org/2000/svg" width="19" height="14" viewBox="0 0 19 14">
    <path fill="#555F60" fill-rule="nonzero" d="M6.12 4.667l6.333 6.222H4.75c-1.749 0-3.167-1.393-3.167-3.111 0-1.718 1.418-3.111 3.167-3.111M2.375.987l2.177 2.124C2.027 3.228 0 5.266 0 7.778c0 2.577 2.127 4.666 4.75 4.666h9.286L15.62 14l1.005-.988L3.38 0M15.32 4.69C14.78 2.014 12.382 0 9.5 0a5.861 5.861 0 0 0-3.167.91l1.148 1.136a4.391 4.391 0 0 1 2.019-.49c2.405 0 4.354 1.915 4.354 4.277v.39h1.188c1.311 0 2.375 1.044 2.375 2.333 0 .878-.507 1.64-1.235 2.037l1.148 1.128C18.335 11.013 19 9.862 19 8.556c0-2.054-1.623-3.718-3.681-3.866z"/>
</svg>
