<svg xmlns="http://www.w3.org/2000/svg" width="24" height="24" viewBox="0 0 24 24">
    <path fill="#555F60" fill-rule="evenodd" d="M19.07 4.93c3.906 3.905 3.906 10.235 0 14.14-3.905 3.906-10.235 3.906-14.14 0-3.906-3.905-3.906-10.235 0-14.14 3.905-3.906 10.235-3.906 14.14 0zM6 12c0 .837.678 1.515 1.515 1.515h5.303l-1.944 1.945a1 1 0 0 0 0 1.414l.21.21a1.296 1.296 0 0 0 1.833 0L18 12l-5.293-5.293a1 1 0 0 0-1.414 0l-.21.21a1.296 1.296 0 0 0 0 1.833l1.735 1.735H7.515C6.678 10.485 6 11.163 6 12z"/>
</svg>
