<svg width="18" height="18" viewBox="0 0 18 18" xmlns="http://www.w3.org/2000/svg">
    <g fill="#555F60" fill-rule="evenodd">
        <path fill="none" d="M-1.667-1.667h20v20h-20z" />
        <path d="M8.333 0A8.336 8.336 0 0 0 0 8.333c0 4.6 3.733 8.334 8.333 8.334s8.334-3.734 8.334-8.334S12.933 0 8.333 0zm0 15a6.676 6.676 0 0 1-6.666-6.667 6.676 6.676 0 0 1 6.666-6.666A6.676 6.676 0 0 1 15 8.333 6.676 6.676 0 0 1 8.333 15zm3.825-10.35-5.491 5.492-2.159-2.15-1.175 1.175L6.667 12.5l6.666-6.667-1.175-1.183z" />
    </g>
</svg>
