<svg xmlns="http://www.w3.org/2000/svg" width="24" height="24" viewBox="0 0 24 24">
    <g fill="none" fill-rule="evenodd">
        <g fill="#555F60" fill-rule="nonzero">
            <g>
                <g>
                    <path d="M17.371 15.72l3.464 2-2.028.544c.553 2.125-.711 4.302-2.836 4.871-2.134.572-4.327-.694-4.899-2.828l1.256-.336.05.163c.45 1.34 1.872 2.117 3.257 1.746s2.228-1.754 1.948-3.14l-.033-.14-2.179.585 2-3.465zM11 12c2.384 0 4.523.52 5.988 1.347-2.02.718-3.542 2.49-3.905 4.653H3v-2c0-2.21 3.58-4 8-4zm0-10c2.21 0 4 1.79 4 4s-1.79 4-4 4-4-1.79-4-4 1.79-4 4-4z"
                          transform="translate(-24.000000, -603.000000) translate(0.000000, 595.000000) translate(24.000000, 8.000000)"/>
                </g>
            </g>
        </g>
    </g>
</svg>
