<svg xmlns="http://www.w3.org/2000/svg" width="24" height="24" viewBox="0 0 24 24">
    <g fill="none" fill-rule="evenodd">
        <g fill="#555F60" fill-rule="nonzero">
            <g>
                <g>
                    <path d="M20 15v3h3v2h-3v3h-2v-3h-3v-2h3v-3h2zm-9-3c2.384 0 4.523.52 5.988 1.347-2.02.718-3.542 2.49-3.905 4.653H3v-2c0-2.21 3.58-4 8-4zm0-10c2.21 0 4 1.79 4 4s-1.79 4-4 4-4-1.79-4-4 1.79-4 4-4z"
                          transform="translate(-24.000000, -563.000000) translate(0.000000, 555.000000) translate(24.000000, 8.000000)"/>
                </g>
            </g>
        </g>
    </g>
</svg>
