<?xml version="1.0" encoding="UTF-8"?>
<svg width="13px" height="14px" viewBox="0 0 13 14" version="1.1" xmlns="http://www.w3.org/2000/svg" xmlns:xlink="http://www.w3.org/1999/xlink">
    <!-- Generator: Sketch 56.2 (81672) - https://sketch.com -->
    <title>Combined Shape</title>
    <desc>Created with Sketch.</desc>
    <g id="Symbols" stroke="none" stroke-width="1" fill="none" fill-rule="evenodd">
        <g id="Header" transform="translate(-1203.000000, -27.000000)" fill="#4FCE5D">
            <g id="Group-6" transform="translate(1203.000000, 27.000000)">
                <path d="M11.079477,1.95465317 C12.3045722,3.18119286 12.9789214,4.81166111 12.9783028,6.54545873 C12.9768063,10.1236571 10.0658381,13.0345222 6.48923889,13.0345222 L6.48660794,13.0345222 C5.32217937,13.0341611 4.18013968,12.7213357 3.18383413,12.1300937 L2.94684206,11.9894667 L0.49087381,12.6337405 L1.14639365,10.2390579 L0.992147619,9.99365714 C0.342560317,8.96051825 -0.000495238096,7.7663754 2.00539665e-05,6.54024841 C0.00141349206,2.96241111 2.91243333,0.0515460317 6.49176667,0.0515460317 C8.22499683,0.052268254 9.85427857,0.728165079 11.079477,1.95465317 Z M10.4224972,8.40235913 C10.3737472,8.32105754 10.243644,8.27225595 10.0485925,8.17465278 C9.85354087,8.0770496 8.89448135,7.60497421 8.71562817,7.53992262 C8.53682659,7.47487103 8.406775,7.44231944 8.27672341,7.63762897 C8.14672341,7.8328869 7.77287024,8.27225595 7.65901706,8.40235913 C7.54526706,8.53266865 7.43146548,8.54891865 7.2363623,8.45131548 C7.04131071,8.3537123 6.41271944,8.14756944 5.66759246,7.48297024 C5.0876996,6.96580754 4.69620357,6.32689881 4.58240198,6.13169246 C4.4686004,5.93633135 4.57027897,5.83073214 4.66798532,5.73354167 C4.75568373,5.64615278 4.8630369,5.50562897 4.96058849,5.39182738 C5.05808849,5.27776786 5.09064008,5.19641468 5.15564008,5.06631151 C5.22064008,4.93620833 5.18814008,4.82214881 5.13939008,4.72459722 C5.09064008,4.62689087 4.70048532,3.66669643 4.53788214,3.27618056 C4.37956071,2.89572421 4.21871151,2.94725992 4.09897738,2.94122421 C3.98533056,2.9355496 3.85512421,2.93441468 3.72512421,2.93441468 C3.59507262,2.93441468 3.38371944,2.98321627 3.20491786,3.17842262 C3.02611627,3.37378373 2.52215992,3.84565278 2.52215992,4.80584722 C2.52215992,5.76604167 3.22116786,6.69373611 3.31871944,6.82383929 C3.41627103,6.95399405 4.69424325,8.92452579 6.65120754,9.76952579 C7.11657659,9.97050992 7.47995754,10.0904504 7.763275,10.1804187 C8.23060437,10.3287837 8.65589008,10.3079425 8.99203294,10.2576964 C9.3667631,10.2016726 10.146144,9.78577579 10.3087472,9.33000198 C10.4712472,8.87438294 10.4712472,8.48386706 10.4224972,8.40235913 Z" id="Combined-Shape"></path>
            </g>
        </g>
    </g>
</svg>